<svg xmlns="http://www.w3.org/2000/svg" viewBox="0 0 500 500"><g id="freepik--background-complete--inject-2"><rect y="382.4" width="500" height="0.25" style="fill:#ebebeb"></rect><rect x="416.78" y="398.49" width="33.12" height="0.25" style="fill:#ebebeb"></rect><rect x="322.53" y="401.21" width="8.69" height="0.25" style="fill:#ebebeb"></rect><rect x="396.59" y="389.21" width="19.19" height="0.25" style="fill:#ebebeb"></rect><rect x="52.46" y="390.89" width="43.19" height="0.25" style="fill:#ebebeb"></rect><rect x="104.56" y="390.89" width="6.33" height="0.25" style="fill:#ebebeb"></rect><rect x="131.47" y="395.11" width="93.68" height="0.25" style="fill:#ebebeb"></rect><path d="M237,337.8H43.91a5.71,5.71,0,0,1-5.7-5.71V60.66A5.71,5.71,0,0,1,43.91,55H237a5.71,5.71,0,0,1,5.71,5.71V332.09A5.71,5.71,0,0,1,237,337.8ZM43.91,55.2a5.46,5.46,0,0,0-5.45,5.46V332.09a5.46,5.46,0,0,0,5.45,5.46H237a5.47,5.47,0,0,0,5.46-5.46V60.66A5.47,5.47,0,0,0,237,55.2Z" style="fill:#ebebeb"></path><path d="M453.31,337.8H260.21a5.72,5.72,0,0,1-5.71-5.71V60.66A5.72,5.72,0,0,1,260.21,55h193.1A5.71,5.71,0,0,1,459,60.66V332.09A5.71,5.71,0,0,1,453.31,337.8ZM260.21,55.2a5.47,5.47,0,0,0-5.46,5.46V332.09a5.47,5.47,0,0,0,5.46,5.46h193.1a5.47,5.47,0,0,0,5.46-5.46V60.66a5.47,5.47,0,0,0-5.46-5.46Z" style="fill:#ebebeb"></path><path d="M165.06,97.18c0-8.11-4.65-10.79-8.23-11.28-5.86-.8-10.05,3.67-10.05,3.67s-3.19-10.75-14.71-10.75S117,90.56,117,90.56a14.77,14.77,0,0,0-10.94-2.48c-4.52.76-7.21,4.09-10.13,9.1Z" style="fill:#f5f5f5"></path><path d="M394.68,118.57c0-10.46-6-13.93-10.62-14.55-7.58-1-13,4.73-13,4.73s-4.11-13.88-19-13.88S332.62,110,332.62,110a19.1,19.1,0,0,0-14.12-3.2c-5.84,1-9.32,5.28-13.08,11.74Z" style="fill:#f5f5f5"></path><path d="M224.58,135.22s2.57-6.36,8.92-7.05a10.36,10.36,0,0,1,9.42,3.52s5-8.86,14.67-7.59c10.63,1.39,10,11.12,10,11.12Z" style="fill:#f5f5f5"></path><polygon points="446.81 382.82 446.81 288.86 442.58 288.86 442.58 265.32 436.41 265.32 436.41 183.5 427.49 183.5 427.49 172.94 408.44 164.06 408.44 153.41 405.8 153.41 405.8 183.5 402.1 183.5 402.1 265.32 398.41 265.32 398.41 222.31 388.38 222.31 388.38 200.13 385.58 200.13 385.58 265.32 377.96 265.32 377.96 240.51 372.95 240.51 372.95 234.18 361.33 234.18 361.33 212.53 354.97 212.53 354.97 197.22 347.16 197.22 347.16 174.93 344.37 174.93 344.37 197.22 336.55 197.22 336.55 212.53 330.19 212.53 330.19 234.18 318.58 234.18 318.58 240.51 313.56 240.51 313.56 265.32 307.61 265.32 307.61 234.18 296 234.18 296 167.15 292.31 167.15 292.31 159.75 267.5 159.75 267.5 167.15 262.22 167.15 262.22 215.71 241.1 215.71 241.1 220.46 233.18 220.46 233.18 224.15 241.1 224.15 241.1 243.16 218.93 243.16 218.93 179.81 214.18 179.81 214.18 166.34 203.89 166.34 203.89 118.58 200.99 118.58 200.99 166.34 193.6 166.34 193.6 179.81 150.27 179.81 150.27 175.38 147.63 175.38 147.63 205.47 143.94 205.47 143.94 206 141.72 206 141.72 236.09 138.02 236.09 138.02 244.26 130.21 244.26 130.21 222.09 127.41 222.09 127.41 274.88 124.3 274.88 124.3 252.72 121.5 252.72 121.5 287.29 119.8 287.29 119.8 262.48 114.78 262.48 114.78 256.14 103.17 256.14 103.17 234.5 96.81 234.5 96.81 219.19 88.99 219.19 88.99 196.88 86.2 196.88 86.2 219.19 78.38 219.19 78.38 234.5 72.02 234.5 72.02 256.14 60.41 256.14 60.41 262.48 55.4 262.48 55.4 286.75 54.5 286.75 54.5 287.29 52.01 287.29 52.01 382.82 446.81 382.82" style="fill:#ebebeb"></polygon><rect x="174.45" y="182.77" width="2.99" height="2.99" style="fill:#f0f0f0"></rect><rect x="174.45" y="187.78" width="2.99" height="2.99" style="fill:#f0f0f0"></rect><rect x="174.45" y="207.84" width="2.99" height="2.99" style="fill:#f0f0f0"></rect><rect x="174.45" y="212.86" width="2.99" height="2.99" style="fill:#f0f0f0"></rect><rect x="174.45" y="217.87" width="2.99" height="2.99" style="fill:#f0f0f0"></rect><rect x="174.45" y="232.92" width="2.99" height="2.99" style="fill:#f0f0f0"></rect><rect x="174.45" y="237.93" width="2.99" height="2.99" style="fill:#f0f0f0"></rect><rect x="179.2" y="202.83" width="2.99" height="2.99" style="fill:#f0f0f0"></rect><rect x="179.2" y="207.84" width="2.99" height="2.99" style="fill:#f0f0f0"></rect><rect x="179.2" y="212.86" width="2.99" height="2.99" style="fill:#f0f0f0"></rect><rect x="179.2" y="217.87" width="2.99" height="2.99" style="fill:#f0f0f0"></rect><rect x="179.2" y="222.89" width="2.99" height="2.99" style="fill:#f0f0f0"></rect><rect x="179.2" y="232.92" width="2.99" height="2.99" style="fill:#f0f0f0"></rect><rect x="179.2" y="237.93" width="2.99" height="2.99" style="fill:#f0f0f0"></rect><rect x="183.95" y="182.77" width="2.99" height="2.99" style="fill:#f0f0f0"></rect><rect x="183.95" y="187.78" width="2.99" height="2.99" style="fill:#f0f0f0"></rect><rect x="183.95" y="192.8" width="2.99" height="2.99" style="fill:#f0f0f0"></rect><rect x="183.95" y="197.81" width="2.99" height="2.99" style="fill:#f0f0f0"></rect><rect x="183.95" y="202.83" width="2.99" height="2.99" style="fill:#f0f0f0"></rect><rect x="183.95" y="207.84" width="2.99" height="2.99" style="fill:#f0f0f0"></rect><rect x="183.95" y="212.86" width="2.99" height="2.99" style="fill:#f0f0f0"></rect><rect x="183.95" y="217.87" width="2.99" height="2.99" style="fill:#f0f0f0"></rect><rect x="183.95" y="222.89" width="2.99" height="2.99" style="fill:#f0f0f0"></rect><rect x="183.95" y="227.9" width="2.99" height="2.99" style="fill:#f0f0f0"></rect><rect x="183.95" y="237.93" width="2.99" height="2.99" style="fill:#f0f0f0"></rect><rect x="188.7" y="182.77" width="2.99" height="2.99" style="fill:#f0f0f0"></rect><rect x="188.7" y="187.78" width="2.99" height="2.99" style="fill:#f0f0f0"></rect><rect x="188.7" y="192.8" width="2.99" height="2.99" style="fill:#f0f0f0"></rect><rect x="188.7" y="197.81" width="2.99" height="2.99" style="fill:#f0f0f0"></rect><rect x="188.7" y="202.83" width="2.99" height="2.99" style="fill:#f0f0f0"></rect><rect x="188.7" y="207.84" width="2.99" height="2.99" style="fill:#f0f0f0"></rect><rect x="188.7" y="212.86" width="2.99" height="2.99" style="fill:#f0f0f0"></rect><rect x="188.7" y="257.99" width="2.99" height="2.99" style="fill:#f0f0f0"></rect><rect x="193.45" y="182.77" width="2.99" height="2.99" style="fill:#f0f0f0"></rect><rect x="193.45" y="187.78" width="2.99" height="2.99" style="fill:#f0f0f0"></rect><rect x="193.45" y="192.8" width="2.99" height="2.99" style="fill:#f0f0f0"></rect><rect x="193.45" y="197.81" width="2.99" height="2.99" style="fill:#f0f0f0"></rect><rect x="193.45" y="202.83" width="2.99" height="2.99" style="fill:#f0f0f0"></rect><rect x="193.45" y="207.84" width="2.99" height="2.99" style="fill:#f0f0f0"></rect><rect x="193.45" y="212.86" width="2.99" height="2.99" style="fill:#f0f0f0"></rect><rect x="193.45" y="217.87" width="2.99" height="2.99" style="fill:#f0f0f0"></rect><rect x="193.45" y="247.96" width="2.99" height="2.99" style="fill:#f0f0f0"></rect><rect x="193.45" y="252.97" width="2.99" height="2.99" style="fill:#f0f0f0"></rect><rect x="193.45" y="257.99" width="2.99" height="2.99" style="fill:#f0f0f0"></rect><rect x="193.45" y="263" width="2.99" height="2.99" style="fill:#f0f0f0"></rect><rect x="193.45" y="283.06" width="2.99" height="2.99" style="fill:#f0f0f0"></rect><rect x="198.2" y="182.77" width="2.99" height="2.99" style="fill:#f0f0f0"></rect><rect x="198.2" y="187.78" width="2.99" height="2.99" style="fill:#f0f0f0"></rect><rect x="198.2" y="192.8" width="2.99" height="2.99" style="fill:#f0f0f0"></rect><rect x="198.2" y="197.81" width="2.99" height="2.99" style="fill:#f0f0f0"></rect><rect x="198.2" y="202.83" width="2.99" height="2.99" style="fill:#f0f0f0"></rect><rect x="198.2" y="207.84" width="2.99" height="2.99" style="fill:#f0f0f0"></rect><rect x="198.2" y="212.86" width="2.99" height="2.99" style="fill:#f0f0f0"></rect><rect x="198.2" y="217.87" width="2.99" height="2.99" style="fill:#f0f0f0"></rect><rect x="198.2" y="222.89" width="2.99" height="2.99" style="fill:#f0f0f0"></rect><rect x="198.2" y="227.9" width="2.99" height="2.99" style="fill:#f0f0f0"></rect><rect x="198.2" y="242.95" width="2.99" height="2.99" style="fill:#f0f0f0"></rect><rect x="198.2" y="247.96" width="2.99" height="2.99" style="fill:#f0f0f0"></rect><rect x="198.2" y="252.97" width="2.99" height="2.99" style="fill:#f0f0f0"></rect><rect x="198.2" y="257.99" width="2.99" height="2.99" style="fill:#f0f0f0"></rect><rect x="198.2" y="263" width="2.99" height="2.99" style="fill:#f0f0f0"></rect><rect x="198.2" y="283.06" width="2.99" height="2.99" style="fill:#f0f0f0"></rect><rect x="202.95" y="182.77" width="2.99" height="2.99" style="fill:#f0f0f0"></rect><rect x="202.95" y="187.78" width="2.99" height="2.99" style="fill:#f0f0f0"></rect><rect x="202.95" y="192.8" width="2.99" height="2.99" style="fill:#f0f0f0"></rect><rect x="202.95" y="197.81" width="2.99" height="2.99" style="fill:#f0f0f0"></rect><rect x="202.95" y="202.83" width="2.99" height="2.99" style="fill:#f0f0f0"></rect><rect x="202.95" y="207.84" width="2.99" height="2.99" style="fill:#f0f0f0"></rect><rect x="202.95" y="212.86" width="2.99" height="2.99" style="fill:#f0f0f0"></rect><rect x="202.95" y="217.87" width="2.99" height="2.99" style="fill:#f0f0f0"></rect><rect x="202.95" y="222.89" width="2.99" height="2.99" style="fill:#f0f0f0"></rect><rect x="202.95" y="227.9" width="2.99" height="2.99" style="fill:#f0f0f0"></rect><rect x="202.95" y="232.92" width="2.99" height="2.99" style="fill:#f0f0f0"></rect><rect x="202.95" y="237.93" width="2.99" height="2.99" style="fill:#f0f0f0"></rect><rect x="202.95" y="242.95" width="2.99" height="2.99" style="fill:#f0f0f0"></rect><rect x="202.95" y="247.96" width="2.99" height="2.99" style="fill:#f0f0f0"></rect><rect x="202.95" y="252.97" width="2.99" height="2.99" style="fill:#f0f0f0"></rect><rect x="202.95" y="257.99" width="2.99" height="2.99" style="fill:#f0f0f0"></rect><rect x="202.95" y="263" width="2.99" height="2.99" style="fill:#f0f0f0"></rect><rect x="202.95" y="268.02" width="2.99" height="2.99" style="fill:#f0f0f0"></rect><rect x="207.7" y="182.77" width="2.99" height="2.99" style="fill:#f0f0f0"></rect><rect x="207.7" y="187.78" width="2.99" height="2.99" style="fill:#f0f0f0"></rect><rect x="207.7" y="192.8" width="2.99" height="2.99" style="fill:#f0f0f0"></rect><rect x="207.7" y="197.81" width="2.99" height="2.99" style="fill:#f0f0f0"></rect><rect x="207.7" y="202.83" width="2.99" height="2.99" style="fill:#f0f0f0"></rect><rect x="207.7" y="207.84" width="2.99" height="2.99" style="fill:#f0f0f0"></rect><rect x="207.7" y="212.86" width="2.99" height="2.99" style="fill:#f0f0f0"></rect><rect x="207.7" y="217.87" width="2.99" height="2.99" style="fill:#f0f0f0"></rect><rect x="207.7" y="222.89" width="2.99" height="2.99" style="fill:#f0f0f0"></rect><rect x="207.7" y="227.9" width="2.99" height="2.99" style="fill:#f0f0f0"></rect><rect x="207.7" y="242.95" width="2.99" height="2.99" style="fill:#f0f0f0"></rect><rect x="207.7" y="247.96" width="2.99" height="2.99" style="fill:#f0f0f0"></rect><rect x="207.7" y="252.97" width="2.99" height="2.99" style="fill:#f0f0f0"></rect><rect x="207.7" y="257.99" width="2.99" height="2.99" style="fill:#f0f0f0"></rect><rect x="212.45" y="182.77" width="2.99" height="2.99" style="fill:#f0f0f0"></rect><rect x="212.45" y="187.78" width="2.99" height="2.99" style="fill:#f0f0f0"></rect><rect x="212.45" y="192.8" width="2.99" height="2.99" style="fill:#f0f0f0"></rect><rect x="212.45" y="197.81" width="2.99" height="2.99" style="fill:#f0f0f0"></rect><rect x="212.45" y="202.83" width="2.99" height="2.99" style="fill:#f0f0f0"></rect><rect x="212.45" y="207.84" width="2.99" height="2.99" style="fill:#f0f0f0"></rect><rect x="212.45" y="212.86" width="2.99" height="2.99" style="fill:#f0f0f0"></rect><rect x="212.45" y="217.87" width="2.99" height="2.99" style="fill:#f0f0f0"></rect><rect x="212.45" y="222.89" width="2.99" height="2.99" style="fill:#f0f0f0"></rect><rect x="212.45" y="227.9" width="2.99" height="2.99" style="fill:#f0f0f0"></rect><rect x="212.45" y="242.95" width="2.99" height="2.99" style="fill:#f0f0f0"></rect><rect x="212.45" y="247.96" width="2.99" height="2.99" style="fill:#f0f0f0"></rect><rect x="212.45" y="252.97" width="2.99" height="2.99" style="fill:#f0f0f0"></rect><rect x="265.94" y="169.75" width="2.99" height="2.99" style="fill:#f0f0f0"></rect><rect x="265.94" y="174.76" width="2.99" height="2.99" style="fill:#f0f0f0"></rect><rect x="265.94" y="179.78" width="2.99" height="2.99" style="fill:#f0f0f0"></rect><rect x="265.94" y="184.79" width="2.99" height="2.99" style="fill:#f0f0f0"></rect><rect x="265.94" y="189.81" width="2.99" height="2.99" style="fill:#f0f0f0"></rect><rect x="265.94" y="194.82" width="2.99" height="2.99" style="fill:#f0f0f0"></rect><rect x="265.94" y="199.84" width="2.99" height="2.99" style="fill:#f0f0f0"></rect><rect x="265.94" y="204.85" width="2.99" height="2.99" style="fill:#f0f0f0"></rect><rect x="265.94" y="219.9" width="2.99" height="2.99" style="fill:#f0f0f0"></rect><rect x="265.94" y="224.91" width="2.99" height="2.99" style="fill:#f0f0f0"></rect><rect x="270.69" y="169.75" width="2.99" height="2.99" style="fill:#f0f0f0"></rect><rect x="270.69" y="174.76" width="2.99" height="2.99" style="fill:#f0f0f0"></rect><rect x="270.69" y="179.78" width="2.99" height="2.99" style="fill:#f0f0f0"></rect><rect x="270.69" y="184.79" width="2.99" height="2.99" style="fill:#f0f0f0"></rect><rect x="270.69" y="189.81" width="2.99" height="2.99" style="fill:#f0f0f0"></rect><rect x="270.69" y="194.82" width="2.99" height="2.99" style="fill:#f0f0f0"></rect><rect x="270.69" y="199.84" width="2.99" height="2.99" style="fill:#f0f0f0"></rect><rect x="270.69" y="204.85" width="2.99" height="2.99" style="fill:#f0f0f0"></rect><rect x="270.69" y="224.91" width="2.99" height="2.99" style="fill:#f0f0f0"></rect><rect x="275.45" y="169.75" width="2.99" height="2.99" style="fill:#f0f0f0"></rect><rect x="275.45" y="174.76" width="2.99" height="2.99" style="fill:#f0f0f0"></rect><rect x="275.45" y="179.78" width="2.99" height="2.99" style="fill:#f0f0f0"></rect><rect x="275.45" y="184.79" width="2.99" height="2.99" style="fill:#f0f0f0"></rect><rect x="275.45" y="189.81" width="2.99" height="2.99" style="fill:#f0f0f0"></rect><rect x="275.45" y="194.82" width="2.99" height="2.99" style="fill:#f0f0f0"></rect><rect x="275.45" y="199.84" width="2.99" height="2.99" style="fill:#f0f0f0"></rect><rect x="275.45" y="204.85" width="2.99" height="2.99" style="fill:#f0f0f0"></rect><rect x="280.2" y="169.75" width="2.99" height="2.99" style="fill:#f0f0f0"></rect><rect x="280.2" y="174.76" width="2.99" height="2.99" style="fill:#f0f0f0"></rect><rect x="280.2" y="179.78" width="2.99" height="2.99" style="fill:#f0f0f0"></rect><rect x="280.2" y="184.79" width="2.99" height="2.99" style="fill:#f0f0f0"></rect><rect x="280.2" y="189.81" width="2.99" height="2.99" style="fill:#f0f0f0"></rect><rect x="280.2" y="194.82" width="2.99" height="2.99" style="fill:#f0f0f0"></rect><rect x="280.2" y="204.85" width="2.99" height="2.99" style="fill:#f0f0f0"></rect><rect x="280.2" y="209.87" width="2.99" height="2.99" style="fill:#f0f0f0"></rect><rect x="280.2" y="224.91" width="2.99" height="2.99" style="fill:#f0f0f0"></rect><rect x="280.2" y="229.92" width="2.99" height="2.99" style="fill:#f0f0f0"></rect><rect x="280.2" y="234.94" width="2.99" height="2.99" style="fill:#f0f0f0"></rect><rect x="280.2" y="239.95" width="2.99" height="2.99" style="fill:#f0f0f0"></rect><rect x="280.2" y="244.97" width="2.99" height="2.99" style="fill:#f0f0f0"></rect><rect x="280.2" y="249.98" width="2.99" height="2.99" style="fill:#f0f0f0"></rect><rect x="280.2" y="255" width="2.99" height="2.99" style="fill:#f0f0f0"></rect><rect x="284.95" y="169.75" width="2.99" height="2.99" style="fill:#f0f0f0"></rect><rect x="284.95" y="174.76" width="2.99" height="2.99" style="fill:#f0f0f0"></rect><rect x="284.95" y="179.78" width="2.99" height="2.99" style="fill:#f0f0f0"></rect><rect x="284.95" y="184.79" width="2.99" height="2.99" style="fill:#f0f0f0"></rect><rect x="284.95" y="189.81" width="2.99" height="2.99" style="fill:#f0f0f0"></rect><rect x="284.95" y="194.82" width="2.99" height="2.99" style="fill:#f0f0f0"></rect><rect x="284.95" y="209.87" width="2.99" height="2.99" style="fill:#f0f0f0"></rect><rect x="284.95" y="214.88" width="2.99" height="2.99" style="fill:#f0f0f0"></rect><rect x="284.95" y="219.9" width="2.99" height="2.99" style="fill:#f0f0f0"></rect><rect x="284.95" y="224.91" width="2.99" height="2.99" style="fill:#f0f0f0"></rect><rect x="284.95" y="229.92" width="2.99" height="2.99" style="fill:#f0f0f0"></rect><rect x="284.95" y="234.94" width="2.99" height="2.99" style="fill:#f0f0f0"></rect><rect x="284.95" y="239.95" width="2.99" height="2.99" style="fill:#f0f0f0"></rect><rect x="284.95" y="244.97" width="2.99" height="2.99" style="fill:#f0f0f0"></rect><rect x="284.95" y="249.98" width="2.99" height="2.99" style="fill:#f0f0f0"></rect><rect x="284.95" y="255" width="2.99" height="2.99" style="fill:#f0f0f0"></rect><rect x="284.95" y="260.01" width="2.99" height="2.99" style="fill:#f0f0f0"></rect><rect x="284.95" y="270.04" width="2.99" height="2.99" style="fill:#f0f0f0"></rect><rect x="289.7" y="169.75" width="2.99" height="2.99" style="fill:#f0f0f0"></rect><rect x="289.7" y="174.76" width="2.99" height="2.99" style="fill:#f0f0f0"></rect><rect x="289.7" y="179.78" width="2.99" height="2.99" style="fill:#f0f0f0"></rect><rect x="289.7" y="184.79" width="2.99" height="2.99" style="fill:#f0f0f0"></rect><rect x="289.7" y="189.81" width="2.99" height="2.99" style="fill:#f0f0f0"></rect><rect x="289.7" y="194.82" width="2.99" height="2.99" style="fill:#f0f0f0"></rect><rect x="289.7" y="209.87" width="2.99" height="2.99" style="fill:#f0f0f0"></rect><rect x="289.7" y="214.88" width="2.99" height="2.99" style="fill:#f0f0f0"></rect><rect x="289.7" y="219.9" width="2.99" height="2.99" style="fill:#f0f0f0"></rect><rect x="289.7" y="224.91" width="2.99" height="2.99" style="fill:#f0f0f0"></rect><rect x="289.7" y="239.95" width="2.99" height="2.99" style="fill:#f0f0f0"></rect><rect x="289.7" y="244.97" width="2.99" height="2.99" style="fill:#f0f0f0"></rect><rect x="289.7" y="249.98" width="2.99" height="2.99" style="fill:#f0f0f0"></rect><rect x="289.7" y="255" width="2.99" height="2.99" style="fill:#f0f0f0"></rect><rect x="289.7" y="260.01" width="2.99" height="2.99" style="fill:#f0f0f0"></rect><rect x="289.7" y="270.04" width="2.99" height="2.99" style="fill:#f0f0f0"></rect><rect x="289.7" y="275.06" width="2.99" height="2.99" style="fill:#f0f0f0"></rect><rect x="332.81" y="216.38" width="2.99" height="2.99" style="fill:#f0f0f0"></rect><rect x="332.81" y="221.39" width="2.99" height="2.99" style="fill:#f0f0f0"></rect><rect x="332.81" y="226.41" width="2.99" height="2.99" style="fill:#f0f0f0"></rect><rect x="332.81" y="231.42" width="2.99" height="2.99" style="fill:#f0f0f0"></rect><rect x="332.81" y="236.44" width="2.99" height="2.99" style="fill:#f0f0f0"></rect><rect x="332.81" y="241.45" width="2.99" height="2.99" style="fill:#f0f0f0"></rect><rect x="332.81" y="246.46" width="2.99" height="2.99" style="fill:#f0f0f0"></rect><rect x="332.81" y="261.51" width="2.99" height="2.99" style="fill:#f0f0f0"></rect><rect x="332.81" y="266.52" width="2.99" height="2.99" style="fill:#f0f0f0"></rect><rect x="332.81" y="271.54" width="2.99" height="2.99" style="fill:#f0f0f0"></rect><rect x="337.56" y="216.38" width="2.99" height="2.99" style="fill:#f0f0f0"></rect><rect x="337.56" y="221.39" width="2.99" height="2.99" style="fill:#f0f0f0"></rect><rect x="337.56" y="226.41" width="2.99" height="2.99" style="fill:#f0f0f0"></rect><rect x="337.56" y="231.42" width="2.99" height="2.99" style="fill:#f0f0f0"></rect><rect x="337.56" y="236.44" width="2.99" height="2.99" style="fill:#f0f0f0"></rect><rect x="337.56" y="241.45" width="2.99" height="2.99" style="fill:#f0f0f0"></rect><rect x="337.56" y="246.46" width="2.99" height="2.99" style="fill:#f0f0f0"></rect><rect x="342.31" y="216.38" width="2.99" height="2.99" style="fill:#f0f0f0"></rect><rect x="342.31" y="221.39" width="2.99" height="2.99" style="fill:#f0f0f0"></rect><rect x="342.31" y="226.41" width="2.99" height="2.99" style="fill:#f0f0f0"></rect><rect x="342.31" y="231.42" width="2.99" height="2.99" style="fill:#f0f0f0"></rect><rect x="342.31" y="236.44" width="2.99" height="2.99" style="fill:#f0f0f0"></rect><rect x="342.31" y="241.45" width="2.99" height="2.99" style="fill:#f0f0f0"></rect><rect x="342.31" y="246.46" width="2.99" height="2.99" style="fill:#f0f0f0"></rect><rect x="347.06" y="216.38" width="2.99" height="2.99" style="fill:#f0f0f0"></rect><rect x="347.06" y="221.39" width="2.99" height="2.99" style="fill:#f0f0f0"></rect><rect x="347.06" y="226.41" width="2.99" height="2.99" style="fill:#f0f0f0"></rect><rect x="347.06" y="231.42" width="2.99" height="2.99" style="fill:#f0f0f0"></rect><rect x="347.06" y="236.44" width="2.99" height="2.99" style="fill:#f0f0f0"></rect><rect x="347.06" y="241.45" width="2.99" height="2.99" style="fill:#f0f0f0"></rect><rect x="347.06" y="246.46" width="2.99" height="2.99" style="fill:#f0f0f0"></rect><rect x="347.06" y="251.48" width="2.99" height="2.99" style="fill:#f0f0f0"></rect><rect x="347.06" y="256.49" width="2.99" height="2.99" style="fill:#f0f0f0"></rect><rect x="347.06" y="261.51" width="2.99" height="2.99" style="fill:#f0f0f0"></rect><rect x="347.06" y="266.52" width="2.99" height="2.99" style="fill:#f0f0f0"></rect><rect x="351.81" y="216.38" width="2.99" height="2.99" style="fill:#f0f0f0"></rect><rect x="351.81" y="221.39" width="2.99" height="2.99" style="fill:#f0f0f0"></rect><rect x="351.81" y="226.41" width="2.99" height="2.99" style="fill:#f0f0f0"></rect><rect x="351.81" y="231.42" width="2.99" height="2.99" style="fill:#f0f0f0"></rect><rect x="351.81" y="236.44" width="2.99" height="2.99" style="fill:#f0f0f0"></rect><rect x="351.81" y="241.45" width="2.99" height="2.99" style="fill:#f0f0f0"></rect><rect x="351.81" y="246.46" width="2.99" height="2.99" style="fill:#f0f0f0"></rect><rect x="351.81" y="251.48" width="2.99" height="2.99" style="fill:#f0f0f0"></rect><rect x="351.81" y="256.49" width="2.99" height="2.99" style="fill:#f0f0f0"></rect><rect x="351.81" y="261.51" width="2.99" height="2.99" style="fill:#f0f0f0"></rect><rect x="351.81" y="266.52" width="2.99" height="2.99" style="fill:#f0f0f0"></rect><rect x="351.81" y="271.54" width="2.99" height="2.99" style="fill:#f0f0f0"></rect><rect x="351.81" y="286.58" width="2.99" height="2.99" style="fill:#f0f0f0"></rect><rect x="351.81" y="291.6" width="2.99" height="2.99" style="fill:#f0f0f0"></rect><rect x="356.56" y="216.38" width="2.99" height="2.99" style="fill:#f0f0f0"></rect><rect x="356.56" y="221.39" width="2.99" height="2.99" style="fill:#f0f0f0"></rect><rect x="356.56" y="226.41" width="2.99" height="2.99" style="fill:#f0f0f0"></rect><rect x="356.56" y="241.45" width="2.99" height="2.99" style="fill:#f0f0f0"></rect><rect x="356.56" y="246.46" width="2.99" height="2.99" style="fill:#f0f0f0"></rect><rect x="356.56" y="251.48" width="2.99" height="2.99" style="fill:#f0f0f0"></rect><rect x="356.56" y="256.49" width="2.99" height="2.99" style="fill:#f0f0f0"></rect><rect x="356.56" y="261.51" width="2.99" height="2.99" style="fill:#f0f0f0"></rect><rect x="356.56" y="266.52" width="2.99" height="2.99" style="fill:#f0f0f0"></rect><rect x="356.56" y="271.54" width="2.99" height="2.99" style="fill:#f0f0f0"></rect><rect x="356.56" y="286.58" width="2.99" height="2.99" style="fill:#f0f0f0"></rect><rect x="356.56" y="291.6" width="2.99" height="2.99" style="fill:#f0f0f0"></rect><rect x="356.56" y="296.61" width="2.99" height="2.99" style="fill:#f0f0f0"></rect><rect x="406.36" y="186.29" width="2.99" height="2.99" style="fill:#f0f0f0"></rect><rect x="406.36" y="191.3" width="2.99" height="2.99" style="fill:#f0f0f0"></rect><rect x="406.36" y="196.32" width="2.99" height="2.99" style="fill:#f0f0f0"></rect><rect x="406.36" y="201.33" width="2.99" height="2.99" style="fill:#f0f0f0"></rect><rect x="406.36" y="206.35" width="2.99" height="2.99" style="fill:#f0f0f0"></rect><rect x="406.36" y="211.36" width="2.99" height="2.99" style="fill:#f0f0f0"></rect><rect x="406.36" y="216.38" width="2.99" height="2.99" style="fill:#f0f0f0"></rect><rect x="406.36" y="221.39" width="2.99" height="2.99" style="fill:#f0f0f0"></rect><rect x="406.36" y="226.41" width="2.99" height="2.99" style="fill:#f0f0f0"></rect><rect x="406.36" y="231.42" width="2.99" height="2.99" style="fill:#f0f0f0"></rect><rect x="406.36" y="236.44" width="2.99" height="2.99" style="fill:#f0f0f0"></rect><rect x="406.36" y="241.45" width="2.99" height="2.99" style="fill:#f0f0f0"></rect><rect x="406.36" y="246.46" width="2.99" height="2.99" style="fill:#f0f0f0"></rect><rect x="406.36" y="251.48" width="2.99" height="2.99" style="fill:#f0f0f0"></rect><rect x="406.36" y="256.49" width="2.99" height="2.99" style="fill:#f0f0f0"></rect><rect x="406.36" y="261.51" width="2.99" height="2.99" style="fill:#f0f0f0"></rect><rect x="406.36" y="266.52" width="2.99" height="2.99" style="fill:#f0f0f0"></rect><rect x="406.36" y="271.54" width="2.99" height="2.99" style="fill:#f0f0f0"></rect><rect x="406.36" y="276.55" width="2.99" height="2.99" style="fill:#f0f0f0"></rect><rect x="406.36" y="281.57" width="2.99" height="2.99" style="fill:#f0f0f0"></rect><rect x="406.36" y="286.58" width="2.99" height="2.99" style="fill:#f0f0f0"></rect><rect x="406.36" y="291.6" width="2.99" height="2.99" style="fill:#f0f0f0"></rect><rect x="406.36" y="296.61" width="2.99" height="2.99" style="fill:#f0f0f0"></rect><rect x="411.11" y="186.29" width="2.99" height="2.99" style="fill:#f0f0f0"></rect><rect x="411.11" y="191.3" width="2.99" height="2.99" style="fill:#f0f0f0"></rect><rect x="411.11" y="196.32" width="2.99" height="2.99" style="fill:#f0f0f0"></rect><rect x="411.11" y="201.33" width="2.99" height="2.99" style="fill:#f0f0f0"></rect><rect x="411.11" y="206.35" width="2.99" height="2.99" style="fill:#f0f0f0"></rect><rect x="411.11" y="211.36" width="2.99" height="2.99" style="fill:#f0f0f0"></rect><rect x="411.11" y="216.38" width="2.99" height="2.99" style="fill:#f0f0f0"></rect><rect x="411.11" y="221.39" width="2.99" height="2.99" style="fill:#f0f0f0"></rect><rect x="411.11" y="226.41" width="2.99" height="2.99" style="fill:#f0f0f0"></rect><rect x="411.11" y="231.42" width="2.99" height="2.99" style="fill:#f0f0f0"></rect><rect x="411.11" y="236.44" width="2.99" height="2.99" style="fill:#f0f0f0"></rect><rect x="411.11" y="241.45" width="2.99" height="2.99" style="fill:#f0f0f0"></rect><rect x="411.11" y="246.46" width="2.99" height="2.99" style="fill:#f0f0f0"></rect><rect x="411.11" y="251.48" width="2.99" height="2.99" style="fill:#f0f0f0"></rect><rect x="411.11" y="256.49" width="2.99" height="2.99" style="fill:#f0f0f0"></rect><rect x="411.11" y="261.51" width="2.99" height="2.99" style="fill:#f0f0f0"></rect><rect x="411.11" y="266.52" width="2.99" height="2.99" style="fill:#f0f0f0"></rect><rect x="411.11" y="271.54" width="2.99" height="2.99" style="fill:#f0f0f0"></rect><rect x="411.11" y="276.55" width="2.99" height="2.99" style="fill:#f0f0f0"></rect><rect x="415.86" y="186.29" width="2.99" height="2.99" style="fill:#f0f0f0"></rect><rect x="415.86" y="191.3" width="2.99" height="2.99" style="fill:#f0f0f0"></rect><rect x="415.86" y="196.32" width="2.99" height="2.99" style="fill:#f0f0f0"></rect><rect x="415.86" y="201.33" width="2.99" height="2.99" style="fill:#f0f0f0"></rect><rect x="415.86" y="206.35" width="2.99" height="2.99" style="fill:#f0f0f0"></rect><rect x="415.86" y="211.36" width="2.99" height="2.99" style="fill:#f0f0f0"></rect><rect x="415.86" y="216.38" width="2.99" height="2.99" style="fill:#f0f0f0"></rect><rect x="415.86" y="221.39" width="2.99" height="2.99" style="fill:#f0f0f0"></rect><rect x="415.86" y="226.41" width="2.99" height="2.99" style="fill:#f0f0f0"></rect><rect x="415.86" y="231.42" width="2.99" height="2.99" style="fill:#f0f0f0"></rect><rect x="415.86" y="236.44" width="2.99" height="2.99" style="fill:#f0f0f0"></rect><rect x="415.86" y="241.45" width="2.99" height="2.99" style="fill:#f0f0f0"></rect><rect x="415.86" y="246.46" width="2.99" height="2.99" style="fill:#f0f0f0"></rect><rect x="415.86" y="251.48" width="2.99" height="2.99" style="fill:#f0f0f0"></rect><rect x="415.86" y="256.49" width="2.99" height="2.99" style="fill:#f0f0f0"></rect><rect x="415.86" y="261.51" width="2.99" height="2.99" style="fill:#f0f0f0"></rect><rect x="415.86" y="266.52" width="2.99" height="2.99" style="fill:#f0f0f0"></rect><rect x="415.86" y="271.54" width="2.99" height="2.99" style="fill:#f0f0f0"></rect><rect x="415.86" y="276.55" width="2.99" height="2.99" style="fill:#f0f0f0"></rect><rect x="420.61" y="186.29" width="2.99" height="2.99" style="fill:#f0f0f0"></rect><rect x="420.61" y="191.3" width="2.99" height="2.99" style="fill:#f0f0f0"></rect><rect x="420.61" y="196.32" width="2.99" height="2.99" style="fill:#f0f0f0"></rect><rect x="420.61" y="201.33" width="2.99" height="2.99" style="fill:#f0f0f0"></rect><rect x="420.61" y="206.35" width="2.99" height="2.99" style="fill:#f0f0f0"></rect><rect x="420.61" y="211.36" width="2.99" height="2.99" style="fill:#f0f0f0"></rect><rect x="420.61" y="216.38" width="2.99" height="2.99" style="fill:#f0f0f0"></rect><rect x="420.61" y="221.39" width="2.99" height="2.99" style="fill:#f0f0f0"></rect><rect x="420.61" y="226.41" width="2.99" height="2.99" style="fill:#f0f0f0"></rect><rect x="420.61" y="231.42" width="2.99" height="2.99" style="fill:#f0f0f0"></rect><rect x="420.61" y="236.44" width="2.99" height="2.99" style="fill:#f0f0f0"></rect><rect x="420.61" y="241.45" width="2.99" height="2.99" style="fill:#f0f0f0"></rect><rect x="420.61" y="246.46" width="2.99" height="2.99" style="fill:#f0f0f0"></rect><rect x="420.61" y="251.48" width="2.99" height="2.99" style="fill:#f0f0f0"></rect><rect x="420.61" y="256.49" width="2.99" height="2.99" style="fill:#f0f0f0"></rect><rect x="425.36" y="186.29" width="2.99" height="2.99" style="fill:#f0f0f0"></rect><rect x="425.36" y="191.3" width="2.99" height="2.99" style="fill:#f0f0f0"></rect><rect x="425.36" y="196.32" width="2.99" height="2.99" style="fill:#f0f0f0"></rect><rect x="425.36" y="201.33" width="2.99" height="2.99" style="fill:#f0f0f0"></rect><rect x="425.36" y="206.35" width="2.99" height="2.99" style="fill:#f0f0f0"></rect><rect x="425.36" y="211.36" width="2.99" height="2.99" style="fill:#f0f0f0"></rect><rect x="425.36" y="216.38" width="2.99" height="2.99" style="fill:#f0f0f0"></rect><rect x="425.36" y="221.39" width="2.99" height="2.99" style="fill:#f0f0f0"></rect><rect x="425.36" y="226.41" width="2.99" height="2.99" style="fill:#f0f0f0"></rect><rect x="425.36" y="231.42" width="2.99" height="2.99" style="fill:#f0f0f0"></rect><rect x="425.36" y="236.44" width="2.99" height="2.99" style="fill:#f0f0f0"></rect><rect x="425.36" y="241.45" width="2.99" height="2.99" style="fill:#f0f0f0"></rect><rect x="425.36" y="246.46" width="2.99" height="2.99" style="fill:#f0f0f0"></rect><rect x="430.11" y="186.29" width="2.99" height="2.99" style="fill:#f0f0f0"></rect><rect x="430.11" y="191.3" width="2.99" height="2.99" style="fill:#f0f0f0"></rect><rect x="430.11" y="196.32" width="2.99" height="2.99" style="fill:#f0f0f0"></rect><rect x="430.11" y="201.33" width="2.99" height="2.99" style="fill:#f0f0f0"></rect><rect x="430.11" y="206.35" width="2.99" height="2.99" style="fill:#f0f0f0"></rect><rect x="430.11" y="211.36" width="2.99" height="2.99" style="fill:#f0f0f0"></rect><rect x="430.11" y="216.38" width="2.99" height="2.99" style="fill:#f0f0f0"></rect><rect x="430.11" y="221.39" width="2.99" height="2.99" style="fill:#f0f0f0"></rect><rect x="430.11" y="226.41" width="2.99" height="2.99" style="fill:#f0f0f0"></rect><rect x="430.11" y="231.42" width="2.99" height="2.99" style="fill:#f0f0f0"></rect><rect x="430.11" y="236.44" width="2.99" height="2.99" style="fill:#f0f0f0"></rect><rect x="430.11" y="241.45" width="2.99" height="2.99" style="fill:#f0f0f0"></rect><rect x="81.02" y="222.89" width="2.99" height="2.99" style="fill:#f0f0f0"></rect><rect x="81.02" y="227.9" width="2.99" height="2.99" style="fill:#f0f0f0"></rect><rect x="81.02" y="232.92" width="2.99" height="2.99" style="fill:#f0f0f0"></rect><rect x="81.02" y="237.93" width="2.99" height="2.99" style="fill:#f0f0f0"></rect><rect x="81.02" y="242.95" width="2.99" height="2.99" style="fill:#f0f0f0"></rect><rect x="81.02" y="247.96" width="2.99" height="2.99" style="fill:#f0f0f0"></rect><rect x="81.02" y="252.97" width="2.99" height="2.99" style="fill:#f0f0f0"></rect><rect x="81.02" y="257.99" width="2.99" height="2.99" style="fill:#f0f0f0"></rect><rect x="81.02" y="263" width="2.99" height="2.99" style="fill:#f0f0f0"></rect><rect x="81.02" y="268.02" width="2.99" height="2.99" style="fill:#f0f0f0"></rect><rect x="81.02" y="273.03" width="2.99" height="2.99" style="fill:#f0f0f0"></rect><rect x="81.02" y="278.05" width="2.99" height="2.99" style="fill:#f0f0f0"></rect><rect x="81.02" y="283.06" width="2.99" height="2.99" style="fill:#f0f0f0"></rect><rect x="81.02" y="288.08" width="2.99" height="2.99" style="fill:#f0f0f0"></rect><rect x="81.02" y="293.09" width="2.99" height="2.99" style="fill:#f0f0f0"></rect><rect x="81.02" y="298.11" width="2.99" height="2.99" style="fill:#f0f0f0"></rect><rect x="81.02" y="303.12" width="2.99" height="2.99" style="fill:#f0f0f0"></rect><rect x="81.02" y="308.14" width="2.99" height="2.99" style="fill:#f0f0f0"></rect><rect x="81.02" y="313.15" width="2.99" height="2.99" style="fill:#f0f0f0"></rect><rect x="81.02" y="318.17" width="2.99" height="2.99" style="fill:#f0f0f0"></rect><rect x="85.77" y="222.89" width="2.99" height="2.99" style="fill:#f0f0f0"></rect><rect x="85.77" y="227.9" width="2.99" height="2.99" style="fill:#f0f0f0"></rect><rect x="85.77" y="232.92" width="2.99" height="2.99" style="fill:#f0f0f0"></rect><rect x="85.77" y="237.93" width="2.99" height="2.99" style="fill:#f0f0f0"></rect><rect x="85.77" y="242.95" width="2.99" height="2.99" style="fill:#f0f0f0"></rect><rect x="85.77" y="247.96" width="2.99" height="2.99" style="fill:#f0f0f0"></rect><rect x="85.77" y="252.97" width="2.99" height="2.99" style="fill:#f0f0f0"></rect><rect x="85.77" y="257.99" width="2.99" height="2.99" style="fill:#f0f0f0"></rect><rect x="85.77" y="263" width="2.99" height="2.99" style="fill:#f0f0f0"></rect><rect x="85.77" y="268.02" width="2.99" height="2.99" style="fill:#f0f0f0"></rect><rect x="85.77" y="273.03" width="2.99" height="2.99" style="fill:#f0f0f0"></rect><rect x="85.77" y="278.05" width="2.99" height="2.99" style="fill:#f0f0f0"></rect><rect x="85.77" y="283.06" width="2.99" height="2.99" style="fill:#f0f0f0"></rect><rect x="85.77" y="288.08" width="2.99" height="2.99" style="fill:#f0f0f0"></rect><rect x="85.77" y="293.09" width="2.99" height="2.99" style="fill:#f0f0f0"></rect><rect x="85.77" y="298.11" width="2.99" height="2.99" style="fill:#f0f0f0"></rect><rect x="85.77" y="303.12" width="2.99" height="2.99" style="fill:#f0f0f0"></rect><rect x="85.77" y="308.14" width="2.99" height="2.99" style="fill:#f0f0f0"></rect><rect x="90.52" y="222.89" width="2.99" height="2.99" style="fill:#f0f0f0"></rect><rect x="90.52" y="227.9" width="2.99" height="2.99" style="fill:#f0f0f0"></rect><rect x="90.52" y="232.92" width="2.99" height="2.99" style="fill:#f0f0f0"></rect><rect x="90.52" y="237.93" width="2.99" height="2.99" style="fill:#f0f0f0"></rect><rect x="90.52" y="242.95" width="2.99" height="2.99" style="fill:#f0f0f0"></rect><rect x="90.52" y="247.96" width="2.99" height="2.99" style="fill:#f0f0f0"></rect><rect x="90.52" y="252.97" width="2.99" height="2.99" style="fill:#f0f0f0"></rect><rect x="90.52" y="257.99" width="2.99" height="2.99" style="fill:#f0f0f0"></rect><rect x="90.52" y="263" width="2.99" height="2.99" style="fill:#f0f0f0"></rect><rect x="90.52" y="268.02" width="2.99" height="2.99" style="fill:#f0f0f0"></rect><rect x="90.52" y="273.03" width="2.99" height="2.99" style="fill:#f0f0f0"></rect><rect x="90.52" y="278.05" width="2.99" height="2.99" style="fill:#f0f0f0"></rect><rect x="90.52" y="283.06" width="2.99" height="2.99" style="fill:#f0f0f0"></rect><rect x="90.52" y="288.08" width="2.99" height="2.99" style="fill:#f0f0f0"></rect><rect x="90.52" y="293.09" width="2.99" height="2.99" style="fill:#f0f0f0"></rect><rect x="90.52" y="298.11" width="2.99" height="2.99" style="fill:#f0f0f0"></rect><rect x="90.52" y="303.12" width="2.99" height="2.99" style="fill:#f0f0f0"></rect><rect x="90.52" y="308.14" width="2.99" height="2.99" style="fill:#f0f0f0"></rect><rect x="63.24" y="259.49" width="2.99" height="2.99" style="fill:#f0f0f0"></rect><rect x="63.24" y="264.5" width="2.99" height="2.99" style="fill:#f0f0f0"></rect><rect x="63.24" y="269.51" width="2.99" height="2.99" style="fill:#f0f0f0"></rect><rect x="63.24" y="274.53" width="2.99" height="2.99" style="fill:#f0f0f0"></rect><rect x="63.24" y="279.54" width="2.99" height="2.99" style="fill:#f0f0f0"></rect><rect x="63.24" y="284.56" width="2.99" height="2.99" style="fill:#f0f0f0"></rect><rect x="63.24" y="289.57" width="2.99" height="2.99" style="fill:#f0f0f0"></rect><rect x="63.24" y="294.59" width="2.99" height="2.99" style="fill:#f0f0f0"></rect><rect x="63.24" y="299.6" width="2.99" height="2.99" style="fill:#f0f0f0"></rect><rect x="63.24" y="304.62" width="2.99" height="2.99" style="fill:#f0f0f0"></rect><rect x="63.24" y="309.63" width="2.99" height="2.99" style="fill:#f0f0f0"></rect><rect x="63.24" y="314.65" width="2.99" height="2.99" style="fill:#f0f0f0"></rect><rect x="63.24" y="319.66" width="2.99" height="2.99" style="fill:#f0f0f0"></rect><rect x="68" y="259.49" width="2.99" height="2.99" style="fill:#f0f0f0"></rect><rect x="68" y="264.5" width="2.99" height="2.99" style="fill:#f0f0f0"></rect><rect x="68" y="269.51" width="2.99" height="2.99" style="fill:#f0f0f0"></rect><rect x="68" y="274.53" width="2.99" height="2.99" style="fill:#f0f0f0"></rect><rect x="68" y="279.54" width="2.99" height="2.99" style="fill:#f0f0f0"></rect><rect x="68" y="284.56" width="2.99" height="2.99" style="fill:#f0f0f0"></rect><rect x="68" y="289.57" width="2.99" height="2.99" style="fill:#f0f0f0"></rect><rect x="68" y="294.59" width="2.99" height="2.99" style="fill:#f0f0f0"></rect><rect x="68" y="299.6" width="2.99" height="2.99" style="fill:#f0f0f0"></rect><rect x="68" y="304.62" width="2.99" height="2.99" style="fill:#f0f0f0"></rect><rect x="68" y="309.63" width="2.99" height="2.99" style="fill:#f0f0f0"></rect><rect x="68" y="314.65" width="2.99" height="2.99" style="fill:#f0f0f0"></rect><rect x="68" y="319.66" width="2.99" height="2.99" style="fill:#f0f0f0"></rect><rect x="72.75" y="259.49" width="2.99" height="2.99" style="fill:#f0f0f0"></rect><rect x="72.75" y="264.5" width="2.99" height="2.99" style="fill:#f0f0f0"></rect><rect x="72.75" y="269.51" width="2.99" height="2.99" style="fill:#f0f0f0"></rect><rect x="72.75" y="274.53" width="2.99" height="2.99" style="fill:#f0f0f0"></rect><rect x="72.75" y="279.54" width="2.99" height="2.99" style="fill:#f0f0f0"></rect><rect x="72.75" y="284.56" width="2.99" height="2.99" style="fill:#f0f0f0"></rect><rect x="72.75" y="289.57" width="2.99" height="2.99" style="fill:#f0f0f0"></rect><rect x="72.75" y="294.59" width="2.99" height="2.99" style="fill:#f0f0f0"></rect><rect x="72.75" y="299.6" width="2.99" height="2.99" style="fill:#f0f0f0"></rect><rect x="72.75" y="304.62" width="2.99" height="2.99" style="fill:#f0f0f0"></rect><rect x="72.75" y="309.63" width="2.99" height="2.99" style="fill:#f0f0f0"></rect><rect x="72.75" y="314.65" width="2.99" height="2.99" style="fill:#f0f0f0"></rect><rect x="72.75" y="319.66" width="2.99" height="2.99" style="fill:#f0f0f0"></rect><rect x="72.75" y="324.68" width="2.99" height="2.99" style="fill:#f0f0f0"></rect><rect x="99.14" y="260.98" width="2.99" height="2.99" style="fill:#f0f0f0"></rect><rect x="99.14" y="266" width="2.99" height="2.99" style="fill:#f0f0f0"></rect><rect x="99.14" y="271.01" width="2.99" height="2.99" style="fill:#f0f0f0"></rect><rect x="99.14" y="276.02" width="2.99" height="2.99" style="fill:#f0f0f0"></rect><rect x="99.14" y="281.04" width="2.99" height="2.99" style="fill:#f0f0f0"></rect><rect x="99.14" y="286.05" width="2.99" height="2.99" style="fill:#f0f0f0"></rect><rect x="99.14" y="291.07" width="2.99" height="2.99" style="fill:#f0f0f0"></rect><rect x="99.14" y="296.08" width="2.99" height="2.99" style="fill:#f0f0f0"></rect><rect x="99.14" y="301.1" width="2.99" height="2.99" style="fill:#f0f0f0"></rect><rect x="99.14" y="306.11" width="2.99" height="2.99" style="fill:#f0f0f0"></rect><rect x="99.14" y="321.16" width="2.99" height="2.99" style="fill:#f0f0f0"></rect><rect x="103.89" y="260.98" width="2.99" height="2.99" style="fill:#f0f0f0"></rect><rect x="103.89" y="266" width="2.99" height="2.99" style="fill:#f0f0f0"></rect><rect x="103.89" y="271.01" width="2.99" height="2.99" style="fill:#f0f0f0"></rect><rect x="103.89" y="276.02" width="2.99" height="2.99" style="fill:#f0f0f0"></rect><rect x="103.89" y="281.04" width="2.99" height="2.99" style="fill:#f0f0f0"></rect><rect x="103.89" y="286.05" width="2.99" height="2.99" style="fill:#f0f0f0"></rect><rect x="103.89" y="291.07" width="2.99" height="2.99" style="fill:#f0f0f0"></rect><rect x="103.89" y="296.08" width="2.99" height="2.99" style="fill:#f0f0f0"></rect><rect x="103.89" y="301.1" width="2.99" height="2.99" style="fill:#f0f0f0"></rect><rect x="103.89" y="316.14" width="2.99" height="2.99" style="fill:#f0f0f0"></rect><rect x="103.89" y="321.16" width="2.99" height="2.99" style="fill:#f0f0f0"></rect><rect x="108.64" y="260.98" width="2.99" height="2.99" style="fill:#f0f0f0"></rect><rect x="108.64" y="266" width="2.99" height="2.99" style="fill:#f0f0f0"></rect><rect x="108.64" y="271.01" width="2.99" height="2.99" style="fill:#f0f0f0"></rect><rect x="108.64" y="276.02" width="2.99" height="2.99" style="fill:#f0f0f0"></rect><rect x="108.64" y="281.04" width="2.99" height="2.99" style="fill:#f0f0f0"></rect><rect x="108.64" y="286.05" width="2.99" height="2.99" style="fill:#f0f0f0"></rect><rect x="108.64" y="291.07" width="2.99" height="2.99" style="fill:#f0f0f0"></rect><rect x="108.64" y="296.08" width="2.99" height="2.99" style="fill:#f0f0f0"></rect><rect x="108.64" y="311.13" width="2.99" height="2.99" style="fill:#f0f0f0"></rect><rect x="108.64" y="316.14" width="2.99" height="2.99" style="fill:#f0f0f0"></rect><rect x="108.64" y="321.16" width="2.99" height="2.99" style="fill:#f0f0f0"></rect><rect x="152.81" y="184.79" width="2.99" height="2.99" style="fill:#f0f0f0"></rect><rect x="152.81" y="189.81" width="2.99" height="2.99" style="fill:#f0f0f0"></rect><rect x="152.81" y="194.82" width="2.99" height="2.99" style="fill:#f0f0f0"></rect><rect x="152.81" y="199.84" width="2.99" height="2.99" style="fill:#f0f0f0"></rect><rect x="152.81" y="204.85" width="2.99" height="2.99" style="fill:#f0f0f0"></rect><rect x="152.81" y="209.87" width="2.99" height="2.99" style="fill:#f0f0f0"></rect><rect x="152.81" y="214.88" width="2.99" height="2.99" style="fill:#f0f0f0"></rect><rect x="152.81" y="219.9" width="2.99" height="2.99" style="fill:#f0f0f0"></rect><rect x="152.81" y="224.91" width="2.99" height="2.99" style="fill:#f0f0f0"></rect><rect x="152.81" y="229.92" width="2.99" height="2.99" style="fill:#f0f0f0"></rect><rect x="152.81" y="234.94" width="2.99" height="2.99" style="fill:#f0f0f0"></rect><rect x="152.81" y="239.95" width="2.99" height="2.99" style="fill:#f0f0f0"></rect><rect x="152.81" y="244.97" width="2.99" height="2.99" style="fill:#f0f0f0"></rect><rect x="152.81" y="249.98" width="2.99" height="2.99" style="fill:#f0f0f0"></rect><rect x="152.81" y="255" width="2.99" height="2.99" style="fill:#f0f0f0"></rect><rect x="152.81" y="260.01" width="2.99" height="2.99" style="fill:#f0f0f0"></rect><rect x="152.81" y="265.03" width="2.99" height="2.99" style="fill:#f0f0f0"></rect><rect x="152.81" y="275.06" width="2.99" height="2.99" style="fill:#f0f0f0"></rect><rect x="152.81" y="280.07" width="2.99" height="2.99" style="fill:#f0f0f0"></rect><rect x="152.81" y="285.09" width="2.99" height="2.99" style="fill:#f0f0f0"></rect><rect x="152.81" y="290.1" width="2.99" height="2.99" style="fill:#f0f0f0"></rect><rect x="152.81" y="295.12" width="2.99" height="2.99" style="fill:#f0f0f0"></rect><rect x="157.56" y="184.79" width="2.99" height="2.99" style="fill:#f0f0f0"></rect><rect x="157.56" y="189.81" width="2.99" height="2.99" style="fill:#f0f0f0"></rect><rect x="157.56" y="194.82" width="2.99" height="2.99" style="fill:#f0f0f0"></rect><rect x="157.56" y="199.84" width="2.99" height="2.99" style="fill:#f0f0f0"></rect><rect x="157.56" y="204.85" width="2.99" height="2.99" style="fill:#f0f0f0"></rect><rect x="157.56" y="209.87" width="2.99" height="2.99" style="fill:#f0f0f0"></rect><rect x="157.56" y="214.88" width="2.99" height="2.99" style="fill:#f0f0f0"></rect><rect x="157.56" y="219.9" width="2.99" height="2.99" style="fill:#f0f0f0"></rect><rect x="157.56" y="224.91" width="2.99" height="2.99" style="fill:#f0f0f0"></rect><rect x="157.56" y="229.92" width="2.99" height="2.99" style="fill:#f0f0f0"></rect><rect x="157.56" y="234.94" width="2.99" height="2.99" style="fill:#f0f0f0"></rect><rect x="157.56" y="239.95" width="2.99" height="2.99" style="fill:#f0f0f0"></rect><rect x="157.56" y="244.97" width="2.99" height="2.99" style="fill:#f0f0f0"></rect><rect x="157.56" y="249.98" width="2.99" height="2.99" style="fill:#f0f0f0"></rect><rect x="157.56" y="255" width="2.99" height="2.99" style="fill:#f0f0f0"></rect><rect x="157.56" y="260.01" width="2.99" height="2.99" style="fill:#f0f0f0"></rect><rect x="157.56" y="290.1" width="2.99" height="2.99" style="fill:#f0f0f0"></rect><rect x="157.56" y="295.12" width="2.99" height="2.99" style="fill:#f0f0f0"></rect><rect x="162.31" y="184.79" width="2.99" height="2.99" style="fill:#f0f0f0"></rect><rect x="162.31" y="189.81" width="2.99" height="2.99" style="fill:#f0f0f0"></rect><rect x="162.31" y="194.82" width="2.99" height="2.99" style="fill:#f0f0f0"></rect><rect x="162.31" y="199.84" width="2.99" height="2.99" style="fill:#f0f0f0"></rect><rect x="162.31" y="204.85" width="2.99" height="2.99" style="fill:#f0f0f0"></rect><rect x="162.31" y="209.87" width="2.99" height="2.99" style="fill:#f0f0f0"></rect><rect x="162.31" y="214.88" width="2.99" height="2.99" style="fill:#f0f0f0"></rect><rect x="162.31" y="219.9" width="2.99" height="2.99" style="fill:#f0f0f0"></rect><rect x="162.31" y="224.91" width="2.99" height="2.99" style="fill:#f0f0f0"></rect><rect x="162.31" y="229.92" width="2.99" height="2.99" style="fill:#f0f0f0"></rect><rect x="162.31" y="234.94" width="2.99" height="2.99" style="fill:#f0f0f0"></rect><rect x="162.31" y="239.95" width="2.99" height="2.99" style="fill:#f0f0f0"></rect><rect x="162.31" y="244.97" width="2.99" height="2.99" style="fill:#f0f0f0"></rect><rect x="162.31" y="249.98" width="2.99" height="2.99" style="fill:#f0f0f0"></rect><rect x="162.31" y="255" width="2.99" height="2.99" style="fill:#f0f0f0"></rect><rect x="162.31" y="260.01" width="2.99" height="2.99" style="fill:#f0f0f0"></rect><rect x="162.31" y="270.04" width="2.99" height="2.99" style="fill:#f0f0f0"></rect><rect x="162.31" y="275.06" width="2.99" height="2.99" style="fill:#f0f0f0"></rect><rect x="162.31" y="280.07" width="2.99" height="2.99" style="fill:#f0f0f0"></rect><rect x="162.31" y="285.09" width="2.99" height="2.99" style="fill:#f0f0f0"></rect><rect x="162.31" y="295.12" width="2.99" height="2.99" style="fill:#f0f0f0"></rect><rect x="135.56" y="247.96" width="2.99" height="2.99" style="fill:#f0f0f0"></rect><rect x="135.56" y="252.97" width="2.99" height="2.99" style="fill:#f0f0f0"></rect><rect x="135.56" y="257.99" width="2.99" height="2.99" style="fill:#f0f0f0"></rect><rect x="135.56" y="263" width="2.99" height="2.99" style="fill:#f0f0f0"></rect><rect x="135.56" y="268.02" width="2.99" height="2.99" style="fill:#f0f0f0"></rect><rect x="135.56" y="273.03" width="2.99" height="2.99" style="fill:#f0f0f0"></rect><rect x="135.56" y="278.05" width="2.99" height="2.99" style="fill:#f0f0f0"></rect><rect x="135.56" y="288.08" width="2.99" height="2.99" style="fill:#f0f0f0"></rect><rect x="135.56" y="293.09" width="2.99" height="2.99" style="fill:#f0f0f0"></rect><rect x="135.56" y="298.11" width="2.99" height="2.99" style="fill:#f0f0f0"></rect><rect x="135.56" y="303.12" width="2.99" height="2.99" style="fill:#f0f0f0"></rect><rect x="135.56" y="308.14" width="2.99" height="2.99" style="fill:#f0f0f0"></rect><rect x="135.56" y="313.15" width="2.99" height="2.99" style="fill:#f0f0f0"></rect><rect x="135.56" y="318.17" width="2.99" height="2.99" style="fill:#f0f0f0"></rect><rect x="135.56" y="323.18" width="2.99" height="2.99" style="fill:#f0f0f0"></rect><rect x="140.31" y="247.96" width="2.99" height="2.99" style="fill:#f0f0f0"></rect><rect x="140.31" y="252.97" width="2.99" height="2.99" style="fill:#f0f0f0"></rect><rect x="140.31" y="257.99" width="2.99" height="2.99" style="fill:#f0f0f0"></rect><rect x="140.31" y="263" width="2.99" height="2.99" style="fill:#f0f0f0"></rect><rect x="140.31" y="268.02" width="2.99" height="2.99" style="fill:#f0f0f0"></rect><rect x="140.31" y="273.03" width="2.99" height="2.99" style="fill:#f0f0f0"></rect><rect x="140.31" y="288.08" width="2.99" height="2.99" style="fill:#f0f0f0"></rect><rect x="140.31" y="293.09" width="2.99" height="2.99" style="fill:#f0f0f0"></rect><rect x="140.31" y="298.11" width="2.99" height="2.99" style="fill:#f0f0f0"></rect><rect x="140.31" y="303.12" width="2.99" height="2.99" style="fill:#f0f0f0"></rect><rect x="140.31" y="308.14" width="2.99" height="2.99" style="fill:#f0f0f0"></rect><rect x="140.31" y="313.15" width="2.99" height="2.99" style="fill:#f0f0f0"></rect><rect x="140.31" y="318.17" width="2.99" height="2.99" style="fill:#f0f0f0"></rect><rect x="140.31" y="323.18" width="2.99" height="2.99" style="fill:#f0f0f0"></rect><rect x="145.06" y="247.96" width="2.99" height="2.99" style="fill:#f0f0f0"></rect><rect x="145.06" y="252.97" width="2.99" height="2.99" style="fill:#f0f0f0"></rect><rect x="145.06" y="257.99" width="2.99" height="2.99" style="fill:#f0f0f0"></rect><rect x="145.06" y="263" width="2.99" height="2.99" style="fill:#f0f0f0"></rect><rect x="145.06" y="268.02" width="2.99" height="2.99" style="fill:#f0f0f0"></rect><rect x="145.06" y="273.03" width="2.99" height="2.99" style="fill:#f0f0f0"></rect><rect x="145.06" y="283.06" width="2.99" height="2.99" style="fill:#f0f0f0"></rect><rect x="145.06" y="288.08" width="2.99" height="2.99" style="fill:#f0f0f0"></rect><rect x="145.06" y="293.09" width="2.99" height="2.99" style="fill:#f0f0f0"></rect><rect x="145.06" y="298.11" width="2.99" height="2.99" style="fill:#f0f0f0"></rect><rect x="145.06" y="303.12" width="2.99" height="2.99" style="fill:#f0f0f0"></rect><rect x="145.06" y="308.14" width="2.99" height="2.99" style="fill:#f0f0f0"></rect><rect x="145.06" y="313.15" width="2.99" height="2.99" style="fill:#f0f0f0"></rect><rect x="145.06" y="318.17" width="2.99" height="2.99" style="fill:#f0f0f0"></rect><rect x="145.06" y="323.18" width="2.99" height="2.99" style="fill:#f0f0f0"></rect><rect x="245.18" y="219.9" width="2.99" height="2.99" style="fill:#f0f0f0"></rect><rect x="245.18" y="224.91" width="2.99" height="2.99" style="fill:#f0f0f0"></rect><rect x="245.18" y="229.92" width="2.99" height="2.99" style="fill:#f0f0f0"></rect><rect x="245.18" y="234.94" width="2.99" height="2.99" style="fill:#f0f0f0"></rect><rect x="245.18" y="239.95" width="2.99" height="2.99" style="fill:#f0f0f0"></rect><rect x="245.18" y="244.97" width="2.99" height="2.99" style="fill:#f0f0f0"></rect><rect x="245.18" y="249.98" width="2.99" height="2.99" style="fill:#f0f0f0"></rect><rect x="245.18" y="255" width="2.99" height="2.99" style="fill:#f0f0f0"></rect><rect x="245.18" y="260.01" width="2.99" height="2.99" style="fill:#f0f0f0"></rect><rect x="245.18" y="265.03" width="2.99" height="2.99" style="fill:#f0f0f0"></rect><rect x="245.18" y="270.04" width="2.99" height="2.99" style="fill:#f0f0f0"></rect><rect x="245.18" y="275.06" width="2.99" height="2.99" style="fill:#f0f0f0"></rect><rect x="245.18" y="280.07" width="2.99" height="2.99" style="fill:#f0f0f0"></rect><rect x="245.18" y="290.1" width="2.99" height="2.99" style="fill:#f0f0f0"></rect><rect x="245.18" y="295.12" width="2.99" height="2.99" style="fill:#f0f0f0"></rect><rect x="245.18" y="300.13" width="2.99" height="2.99" style="fill:#f0f0f0"></rect><rect x="245.18" y="305.15" width="2.99" height="2.99" style="fill:#f0f0f0"></rect><rect x="245.18" y="315.17" width="2.99" height="2.99" style="fill:#f0f0f0"></rect><rect x="245.18" y="320.19" width="2.99" height="2.99" style="fill:#f0f0f0"></rect><rect x="245.18" y="325.2" width="2.99" height="2.99" style="fill:#f0f0f0"></rect><rect x="249.93" y="219.9" width="2.99" height="2.99" style="fill:#f0f0f0"></rect><rect x="249.93" y="224.91" width="2.99" height="2.99" style="fill:#f0f0f0"></rect><rect x="249.93" y="229.92" width="2.99" height="2.99" style="fill:#f0f0f0"></rect><rect x="249.93" y="234.94" width="2.99" height="2.99" style="fill:#f0f0f0"></rect><rect x="249.93" y="239.95" width="2.99" height="2.99" style="fill:#f0f0f0"></rect><rect x="249.93" y="244.97" width="2.99" height="2.99" style="fill:#f0f0f0"></rect><rect x="249.93" y="249.98" width="2.99" height="2.99" style="fill:#f0f0f0"></rect><rect x="249.93" y="255" width="2.99" height="2.99" style="fill:#f0f0f0"></rect><rect x="249.93" y="260.01" width="2.99" height="2.99" style="fill:#f0f0f0"></rect><rect x="249.93" y="265.03" width="2.99" height="2.99" style="fill:#f0f0f0"></rect><rect x="249.93" y="270.04" width="2.99" height="2.99" style="fill:#f0f0f0"></rect><rect x="249.93" y="275.06" width="2.99" height="2.99" style="fill:#f0f0f0"></rect><rect x="249.93" y="280.07" width="2.99" height="2.99" style="fill:#f0f0f0"></rect><rect x="249.93" y="295.12" width="2.99" height="2.99" style="fill:#f0f0f0"></rect><rect x="249.93" y="300.13" width="2.99" height="2.99" style="fill:#f0f0f0"></rect><rect x="249.93" y="310.16" width="2.99" height="2.99" style="fill:#f0f0f0"></rect><rect x="249.93" y="315.17" width="2.99" height="2.99" style="fill:#f0f0f0"></rect><rect x="249.93" y="320.19" width="2.99" height="2.99" style="fill:#f0f0f0"></rect><rect x="249.93" y="325.2" width="2.99" height="2.99" style="fill:#f0f0f0"></rect><rect x="254.68" y="219.9" width="2.99" height="2.99" style="fill:#f0f0f0"></rect><rect x="254.68" y="224.91" width="2.99" height="2.99" style="fill:#f0f0f0"></rect><rect x="254.68" y="229.92" width="2.99" height="2.99" style="fill:#f0f0f0"></rect><rect x="254.68" y="234.94" width="2.99" height="2.99" style="fill:#f0f0f0"></rect><rect x="254.68" y="239.95" width="2.99" height="2.99" style="fill:#f0f0f0"></rect><rect x="254.68" y="244.97" width="2.99" height="2.99" style="fill:#f0f0f0"></rect><rect x="254.68" y="249.98" width="2.99" height="2.99" style="fill:#f0f0f0"></rect><rect x="254.68" y="255" width="2.99" height="2.99" style="fill:#f0f0f0"></rect><rect x="254.68" y="260.01" width="2.99" height="2.99" style="fill:#f0f0f0"></rect><rect x="254.68" y="265.03" width="2.99" height="2.99" style="fill:#f0f0f0"></rect><rect x="254.68" y="270.04" width="2.99" height="2.99" style="fill:#f0f0f0"></rect><rect x="254.68" y="275.06" width="2.99" height="2.99" style="fill:#f0f0f0"></rect><rect x="254.68" y="280.07" width="2.99" height="2.99" style="fill:#f0f0f0"></rect><rect x="254.68" y="285.09" width="2.99" height="2.99" style="fill:#f0f0f0"></rect><rect x="254.68" y="295.12" width="2.99" height="2.99" style="fill:#f0f0f0"></rect><rect x="254.68" y="305.15" width="2.99" height="2.99" style="fill:#f0f0f0"></rect><rect x="254.68" y="310.16" width="2.99" height="2.99" style="fill:#f0f0f0"></rect><rect x="254.68" y="315.17" width="2.99" height="2.99" style="fill:#f0f0f0"></rect><rect x="254.68" y="320.19" width="2.99" height="2.99" style="fill:#f0f0f0"></rect><rect x="254.68" y="325.2" width="2.99" height="2.99" style="fill:#f0f0f0"></rect><rect x="225.83" y="248.49" width="2.99" height="2.99" style="fill:#f0f0f0"></rect><rect x="225.83" y="253.5" width="2.99" height="2.99" style="fill:#f0f0f0"></rect><rect x="225.83" y="258.52" width="2.99" height="2.99" style="fill:#f0f0f0"></rect><rect x="225.83" y="263.53" width="2.99" height="2.99" style="fill:#f0f0f0"></rect><rect x="225.83" y="268.55" width="2.99" height="2.99" style="fill:#f0f0f0"></rect><rect x="225.83" y="273.56" width="2.99" height="2.99" style="fill:#f0f0f0"></rect><rect x="225.83" y="288.61" width="2.99" height="2.99" style="fill:#f0f0f0"></rect><rect x="225.83" y="293.62" width="2.99" height="2.99" style="fill:#f0f0f0"></rect><rect x="225.83" y="298.63" width="2.99" height="2.99" style="fill:#f0f0f0"></rect><rect x="225.83" y="303.65" width="2.99" height="2.99" style="fill:#f0f0f0"></rect><rect x="225.83" y="308.66" width="2.99" height="2.99" style="fill:#f0f0f0"></rect><rect x="225.83" y="313.68" width="2.99" height="2.99" style="fill:#f0f0f0"></rect><rect x="225.83" y="318.69" width="2.99" height="2.99" style="fill:#f0f0f0"></rect><rect x="230.58" y="248.49" width="2.99" height="2.99" style="fill:#f0f0f0"></rect><rect x="230.58" y="253.5" width="2.99" height="2.99" style="fill:#f0f0f0"></rect><rect x="230.58" y="258.52" width="2.99" height="2.99" style="fill:#f0f0f0"></rect><rect x="230.58" y="263.53" width="2.99" height="2.99" style="fill:#f0f0f0"></rect><rect x="230.58" y="268.55" width="2.99" height="2.99" style="fill:#f0f0f0"></rect><rect x="230.58" y="273.56" width="2.99" height="2.99" style="fill:#f0f0f0"></rect><rect x="230.58" y="288.61" width="2.99" height="2.99" style="fill:#f0f0f0"></rect><rect x="230.58" y="293.62" width="2.99" height="2.99" style="fill:#f0f0f0"></rect><rect x="230.58" y="298.63" width="2.99" height="2.99" style="fill:#f0f0f0"></rect><rect x="230.58" y="303.65" width="2.99" height="2.99" style="fill:#f0f0f0"></rect><rect x="230.58" y="308.66" width="2.99" height="2.99" style="fill:#f0f0f0"></rect><rect x="230.58" y="313.68" width="2.99" height="2.99" style="fill:#f0f0f0"></rect><rect x="230.58" y="323.71" width="2.99" height="2.99" style="fill:#f0f0f0"></rect><rect x="388.41" y="226.41" width="2.99" height="2.99" style="fill:#f0f0f0"></rect><rect x="388.41" y="231.42" width="2.99" height="2.99" style="fill:#f0f0f0"></rect><rect x="388.41" y="236.44" width="2.99" height="2.99" style="fill:#f0f0f0"></rect><rect x="388.41" y="241.45" width="2.99" height="2.99" style="fill:#f0f0f0"></rect><rect x="388.41" y="246.46" width="2.99" height="2.99" style="fill:#f0f0f0"></rect><rect x="388.41" y="251.48" width="2.99" height="2.99" style="fill:#f0f0f0"></rect><rect x="388.41" y="256.49" width="2.99" height="2.99" style="fill:#f0f0f0"></rect><rect x="388.41" y="261.51" width="2.99" height="2.99" style="fill:#f0f0f0"></rect><rect x="388.41" y="266.52" width="2.99" height="2.99" style="fill:#f0f0f0"></rect><rect x="388.41" y="271.54" width="2.99" height="2.99" style="fill:#f0f0f0"></rect><rect x="388.41" y="276.55" width="2.99" height="2.99" style="fill:#f0f0f0"></rect><rect x="388.41" y="286.58" width="2.99" height="2.99" style="fill:#f0f0f0"></rect><rect x="388.41" y="291.6" width="2.99" height="2.99" style="fill:#f0f0f0"></rect><rect x="388.41" y="296.61" width="2.99" height="2.99" style="fill:#f0f0f0"></rect><rect x="388.41" y="301.63" width="2.99" height="2.99" style="fill:#f0f0f0"></rect><rect x="388.41" y="306.64" width="2.99" height="2.99" style="fill:#f0f0f0"></rect><rect x="388.41" y="311.66" width="2.99" height="2.99" style="fill:#f0f0f0"></rect><rect x="388.41" y="316.67" width="2.99" height="2.99" style="fill:#f0f0f0"></rect><rect x="388.41" y="321.68" width="2.99" height="2.99" style="fill:#f0f0f0"></rect><rect x="393.16" y="226.41" width="2.99" height="2.99" style="fill:#f0f0f0"></rect><rect x="393.16" y="231.42" width="2.99" height="2.99" style="fill:#f0f0f0"></rect><rect x="393.16" y="236.44" width="2.99" height="2.99" style="fill:#f0f0f0"></rect><rect x="393.16" y="241.45" width="2.99" height="2.99" style="fill:#f0f0f0"></rect><rect x="393.16" y="246.46" width="2.99" height="2.99" style="fill:#f0f0f0"></rect><rect x="393.16" y="251.48" width="2.99" height="2.99" style="fill:#f0f0f0"></rect><rect x="393.16" y="256.49" width="2.99" height="2.99" style="fill:#f0f0f0"></rect><rect x="393.16" y="261.51" width="2.99" height="2.99" style="fill:#f0f0f0"></rect><rect x="393.16" y="266.52" width="2.99" height="2.99" style="fill:#f0f0f0"></rect><rect x="393.16" y="271.54" width="2.99" height="2.99" style="fill:#f0f0f0"></rect><rect x="393.16" y="276.55" width="2.99" height="2.99" style="fill:#f0f0f0"></rect><rect x="393.16" y="281.57" width="2.99" height="2.99" style="fill:#f0f0f0"></rect><rect x="393.16" y="286.58" width="2.99" height="2.99" style="fill:#f0f0f0"></rect><rect x="393.16" y="291.6" width="2.99" height="2.99" style="fill:#f0f0f0"></rect><rect x="393.16" y="296.61" width="2.99" height="2.99" style="fill:#f0f0f0"></rect><rect x="393.16" y="301.63" width="2.99" height="2.99" style="fill:#f0f0f0"></rect><rect x="393.16" y="306.64" width="2.99" height="2.99" style="fill:#f0f0f0"></rect><rect x="393.16" y="311.66" width="2.99" height="2.99" style="fill:#f0f0f0"></rect><rect x="393.16" y="316.67" width="2.99" height="2.99" style="fill:#f0f0f0"></rect><rect x="393.16" y="321.68" width="2.99" height="2.99" style="fill:#f0f0f0"></rect><rect x="365.01" y="245.94" width="2.99" height="2.99" style="fill:#f0f0f0"></rect><rect x="365.01" y="250.95" width="2.99" height="2.99" style="fill:#f0f0f0"></rect><rect x="365.01" y="255.97" width="2.99" height="2.99" style="fill:#f0f0f0"></rect><rect x="365.01" y="260.98" width="2.99" height="2.99" style="fill:#f0f0f0"></rect><rect x="365.01" y="266" width="2.99" height="2.99" style="fill:#f0f0f0"></rect><rect x="365.01" y="271.01" width="2.99" height="2.99" style="fill:#f0f0f0"></rect><rect x="365.01" y="276.02" width="2.99" height="2.99" style="fill:#f0f0f0"></rect><rect x="365.01" y="281.04" width="2.99" height="2.99" style="fill:#f0f0f0"></rect><rect x="365.01" y="286.05" width="2.99" height="2.99" style="fill:#f0f0f0"></rect><rect x="365.01" y="291.07" width="2.99" height="2.99" style="fill:#f0f0f0"></rect><rect x="369.76" y="245.94" width="2.99" height="2.99" style="fill:#f0f0f0"></rect><rect x="369.76" y="250.95" width="2.99" height="2.99" style="fill:#f0f0f0"></rect><rect x="369.76" y="255.97" width="2.99" height="2.99" style="fill:#f0f0f0"></rect><rect x="369.76" y="260.98" width="2.99" height="2.99" style="fill:#f0f0f0"></rect><rect x="369.76" y="266" width="2.99" height="2.99" style="fill:#f0f0f0"></rect><rect x="369.76" y="271.01" width="2.99" height="2.99" style="fill:#f0f0f0"></rect><rect x="369.76" y="276.02" width="2.99" height="2.99" style="fill:#f0f0f0"></rect><rect x="369.76" y="281.04" width="2.99" height="2.99" style="fill:#f0f0f0"></rect><rect x="369.76" y="286.05" width="2.99" height="2.99" style="fill:#f0f0f0"></rect></g><g id="freepik--Shadow--inject-2"><ellipse id="freepik--path--inject-2" cx="250" cy="416.24" rx="193.89" ry="11.32" style="fill:#f5f5f5"></ellipse></g><g id="freepik--Plant--inject-2"><path d="M403.36,340.35s11.1-13.21,18.2-7.05,3.51,19.23-4.68,19.65a20.58,20.58,0,0,1-13.52-4.13Z" style="fill:#FF385C"></path><path d="M358.08,306.85s-9.33-9.77-15.1-8.11-5.17,25,12.73,15.54Z" style="fill:#FF385C"></path><path d="M358.08,306.85s-9.33-9.77-15.1-8.11-5.17,25,12.73,15.54Z" style="isolation:isolate;opacity:0.2"></path><path d="M391.37,379.7s30.64-41.9,5.77-50.39S367.84,363,375,374.77,391.37,379.7,391.37,379.7Z" style="fill:#FF385C"></path><path d="M377.17,293.91s-19-44.12,9.14-45.46,31.21,43.75-1.17,50.29Z" style="fill:#FF385C"></path><path d="M391.37,379.7s30.64-41.9,5.77-50.39S367.84,363,375,374.77,391.37,379.7,391.37,379.7Z" style="isolation:isolate;opacity:0.2"></path><path d="M377.17,293.91s-19-44.12,9.14-45.46,31.21,43.75-1.17,50.29Z" style="isolation:isolate;opacity:0.2"></path><path d="M383.91,330s9.24-39-8.52-42.06-35.29,32.09,1.45,49.78C376.84,337.75,383.14,333.84,383.91,330Z" style="fill:#FF385C"></path><path d="M383.91,330s9.24-39-8.52-42.06-35.29,32.09,1.45,49.78C376.84,337.75,383.14,333.84,383.91,330Z" style="fill:#263238;isolation:isolate;opacity:0.2"></path><path d="M386.67,290.75c8-7.89,14.62-18.91,12.81-30.51a29.14,29.14,0,0,0-1.12-4.81c6,12.65-1.34,27.38-11.69,35.32Z" style="fill:#FF385C"></path><path d="M393.42,252.89a23,23,0,0,0-14.08,15,40.72,40.72,0,0,0-1.52,11.78c.08,1.6.19,3.2.23,4.82a45.27,45.27,0,0,1-.82-9.65,29.26,29.26,0,0,1,2-9.55c2.49-6,7.75-11,14.19-12.44Z" style="fill:#FF385C"></path><path d="M371.89,290.75c-5.88,2.86-9.44,9.14-9.95,15.52-.7,8.74,5.47,16.24,11,22.43,1.46,1.6,3,3.13,4.6,4.6-8.17-6.47-18.53-17.45-16.26-28.77,1-5.93,4.93-11.63,10.64-13.78Z" style="fill:#FF385C"></path><path d="M377.17,293.91c-.87,5.6-2.22,12.26.55,17.49a16.47,16.47,0,0,1,2.49,8.83,36.84,36.84,0,0,1-.82,9.08c.12-1.51.2-3,.2-4.53,0-4.38-.2-9.16-2.72-12.85-2.94-5.48-1.36-12.38.3-18Z" style="fill:#FF385C"></path><path d="M389.66,333.3c-4.94,2.83-7.92,25.15-9.1,31.45-.26,1.57-.48,3.14-.66,4.72-.11-7.37,3.05-32.79,9.76-36.17Z" style="fill:#FF385C"></path><path d="M398.36,334.66c4.45,9.54,3.1,21.62-3.85,29.62a40.93,40.93,0,0,1-3.14,3.18,39.18,39.18,0,0,0,5.07-7.22c4.23-7.76,4.55-17.24,1.92-25.58Z" style="fill:#FF385C"></path><path d="M350.85,311.61c-3.23.95-7.54-.59-8.42-4.07,2.14,2.6,5.16,3.51,8.42,4.07Z" style="fill:#FF385C"></path><path d="M352.75,305.17c-2.73-1.61-5.89-3.33-9-1.67,2.41-3.1,7.21-1.18,9,1.67Z" style="fill:#FF385C"></path><path d="M408.43,342.32c2.07-3.78,8-8.76,11.91-4.57-4.47-2.65-8.66,1.9-11.91,4.57Z" style="fill:#FF385C"></path><path d="M408.43,348.82c4.78-.15,12.52.76,14.6-4.69a4.84,4.84,0,0,1-.6,2.06c-2.91,4.31-9.57,3.82-14,2.63Z" style="fill:#FF385C"></path><polygon points="416.44 372.69 413.99 394.38 413.64 397.43 413.26 400.84 412.92 403.83 412.54 407.18 412.2 410.15 411.45 416.79 359.8 416.79 359.05 410.15 358.71 407.18 358.34 403.82 358 400.84 357.61 397.43 357.27 394.37 354.82 372.69 416.44 372.69" style="fill:#263238"></polygon><g style="opacity:0.2"><polygon points="416.44 372.69 413.99 394.38 413.64 397.43 413.26 400.84 412.92 403.83 412.54 407.18 412.2 410.15 411.45 416.79 359.8 416.79 359.05 410.15 358.71 407.18 358.34 403.82 358 400.84 357.61 397.43 357.27 394.37 354.82 372.69 416.44 372.69" style="fill:#fff"></polygon></g><g style="opacity:0.45"><path d="M414,394.38l-.35,3.05a3.62,3.62,0,0,1-.47,0,7.93,7.93,0,0,1-5.65-2.34,5,5,0,0,0-7.06,0,8,8,0,0,1-11.3,0,5,5,0,0,0-7.06,0,8,8,0,0,1-11.3,0,5,5,0,0,0-7.06,0,8,8,0,0,1-6.13,2.32l-.34-3.06a5,5,0,0,0,4.35-1.38,8,8,0,0,1,11.3,0,5,5,0,0,0,7.06,0,8,8,0,0,1,11.3,0,5,5,0,0,0,7.06,0,8,8,0,0,1,11.3,0,5,5,0,0,0,3.53,1.46A4.47,4.47,0,0,0,414,394.38Z" style="fill:#fff"></path></g><g style="opacity:0.45"><path d="M413.26,400.84l-.34,3a7.9,7.9,0,0,1-5.4-2.33,5,5,0,0,0-7.06,0,8,8,0,0,1-11.3,0,5,5,0,0,0-7.06,0,8,8,0,0,1-11.3,0,5,5,0,0,0-7.06,0,7.89,7.89,0,0,1-5.4,2.32l-.34-3a5,5,0,0,0,3.62-1.46,8,8,0,0,1,11.3,0,5,5,0,0,0,7.06,0,8,8,0,0,1,11.3,0,5,5,0,0,0,7.06,0,8,8,0,0,1,11.3,0,5,5,0,0,0,3.53,1.46Z" style="fill:#fff"></path></g><g style="opacity:0.45"><path d="M412.54,407.18l-.34,3a7.89,7.89,0,0,1-4.68-2.26,5,5,0,0,0-7.06,0,8,8,0,0,1-11.3,0,5,5,0,0,0-7.06,0,8,8,0,0,1-11.3,0,5,5,0,0,0-7.06,0,7.86,7.86,0,0,1-4.69,2.26l-.34-3a5,5,0,0,0,2.91-1.41,8,8,0,0,1,11.3,0,5,5,0,0,0,7.06,0,8,8,0,0,1,11.3,0,5,5,0,0,0,7.06,0,8,8,0,0,1,11.3,0A4.94,4.94,0,0,0,412.54,407.18Z" style="fill:#fff"></path></g></g><g id="freepik--speech-bubble--inject-2"><path d="M218.79,98.94h34.82a10.72,10.72,0,0,1,10.73,10.72V140a10.72,10.72,0,0,1-10.72,10.72H230.14l-6.07,9.57-1.21-9.57h-4.07A10.72,10.72,0,0,1,208.07,140V109.66A10.72,10.72,0,0,1,218.79,98.94Z" style="fill:#FF385C"></path><circle cx="236.2" cy="124.68" r="17.28" transform="translate(-18.98 203.54) rotate(-45)" style="fill:#fff"></circle><path d="M234.39,132.4a1.56,1.56,0,0,1-1.21-.56l-6.78-8a1.59,1.59,0,1,1,2.42-2l5.57,6.56,9.2-10.84a1.59,1.59,0,1,1,2.42,2.06L235.6,131.84A1.56,1.56,0,0,1,234.39,132.4Z" style="fill:#FF385C"></path></g><g id="freepik--Character--inject-2"><path d="M159.21,327.5l9.87,17.29c26.44-6.16,111.2-19.09,121.61,10,12.93,36.14-80.55,65-132.29,66.72s-96.86-10.57-64.15-86Z" style="fill:#263238"></path><path d="M159.21,327.5l9.87,17.29c26.44-6.16,111.2-19.09,121.61,10,12.93,36.14-80.55,65-132.29,66.72s-96.86-10.57-64.15-86Z" style="isolation:isolate;opacity:0.2"></path><g style="opacity:0.4"><path d="M159.21,327.5l9.87,17.29c26.44-6.16,111.2-19.09,121.61,10,12.93,36.14-80.55,65-132.29,66.72s-96.86-10.57-64.15-86Z" style="fill:#fff"></path></g><path d="M203.27,393.64s25.78-32.19,44-36.17c0,0-100.78-.12-125.2,8.07l61.25,39.37Z" style="opacity:0.2"></path><path d="M184.75,414.35a.34.34,0,0,1,.34-.17.29.29,0,0,1,.24.24c.13.58,1,5.77-.23,7.06a1.09,1.09,0,0,1-1,.24,1.76,1.76,0,0,1-1.34-1.16,4.58,4.58,0,0,1,.28-2.83A18.38,18.38,0,0,1,184.75,414.35Zm.07,1a7.35,7.35,0,0,0-1.5,4.89,1.13,1.13,0,0,0,.93.79.37.37,0,0,0,.42-.1,1.09,1.09,0,0,0,.23-.39A14.37,14.37,0,0,0,184.82,415.4Z" style="fill:#263238"></path><polygon points="205.55 392.82 197.33 395.75 187.11 399.39 189.73 410.58 199.63 408.47 205.55 407.21 205.55 392.82" style="fill:#ebb376"></polygon><path d="M192.52,411.11l-1.8-13.2a1.3,1.3,0,0,0-1.52-1.12l-6.51,1.08s-8.86.83-10.62,3.11c-5.15,6.64-1.93,35.93,1.5,37,1.25.38,2.58-1.34,3.13-2.53,1.73-3.77,4.78-13.65,6.27-16.78,1.73-3.66,6.49-5.45,8.63-6.09A1.31,1.31,0,0,0,192.52,411.11Z" style="fill:#FF385C"></path><path d="M184.8,414.25a.26.26,0,0,1,.33-.07c.2,0,3.75,1.52,4.4,3.49a1.93,1.93,0,0,1-.12,1.49,1.11,1.11,0,0,1-1.15.78c-1.52-.16-3.34-3.77-3.54-5.4l0-.16A.37.37,0,0,1,184.8,414.25Zm4,4.51a1.24,1.24,0,0,0,0-.83c-.41-1.25-2.39-2.36-3.41-2.85.49,1.7,2,4.11,2.86,4.2.09,0,.28,0,.48-.38l.06-.14Z" style="fill:#263238"></path><polygon points="205.55 392.82 197.33 395.75 199.63 408.47 205.55 407.21 205.55 392.82" style="isolation:isolate;opacity:0.2"></polygon><polygon points="203.4 410.38 209.52 410.82 205.42 389.76 198.48 393.6 203.4 410.38" style="fill:#FF385C"></polygon><polygon points="203.4 410.38 209.52 410.82 205.42 389.76 198.48 393.6 203.4 410.38" style="fill:#fff;isolation:isolate;opacity:0.6000000000000001"></polygon><path d="M135.21,251s-2.52-35.58,5.5-60.06,25.66-32.44,39.58-30.59c0,0,5-5.48,17.35-1.4,15.46,5.09,28.5,22,28.12,48.51s-30.22,51.05-57.57,50.5S135.21,251,135.21,251Z" style="fill:#FF385C"></path><path d="M135.21,251s-2.52-35.58,5.5-60.06,25.66-32.44,39.58-30.59c0,0,5-5.48,17.35-1.4,15.46,5.09,28.5,22,28.12,48.51s-30.22,51.05-57.57,50.5S135.21,251,135.21,251Z" style="opacity:0.30000000000000004"></path><path d="M175.71,237c19.8-5.83,39.51-10.79,60-13.93,8.57-1.1,16.88-2.47,25.88-.81,3,.58,7.23,2.49,9.25,5.69a9.53,9.53,0,0,1-.27,10.83,15,15,0,0,1-4.55,4,81.94,81.94,0,0,1-10.06,4.94c-6.4,2.76-12.75,5.14-19.13,7.46-12.76,4.6-25.58,8.74-38.6,12.46a4.93,4.93,0,0,1-3.49-9.19c6-2.94,12.07-5.84,18.11-8.73,10.57-5.05,25.61-12.05,35.83-17.35a67,67,0,0,0,8.2-4.82s0,0,0,0a3.38,3.38,0,0,0-.55.55c-2.89,3.32-2.12,9.49,1.65,11.8.49.26.33.17,0,.14-5.92-.48-13,.86-19.15,1.92-19.26,3.7-38.58,8.94-57.53,14.11-12.62,3-17.83-14.73-5.55-19Z" style="fill:#e9b376"></path><path d="M202.91,261.14l-8,3.13-11.84,4.61-4.13,1.61-9.85-37.13c10.28-.26,35.24-6.2,35.24-6.2S212.5,244.88,202.91,261.14Z" style="fill:#263238"></path><path d="M215.62,247.08,205.88,258l15.59,4.52s8.1-10.27,2.63-14.22Z" style="fill:#ebb376"></path><polygon points="203.27 272.26 217.99 271.6 221.47 262.52 205.88 258 203.27 272.26" style="fill:#ebb376"></polygon><path d="M194.89,264.27l-11.84,4.61a52.45,52.45,0,0,1,5.27-27.12A40.15,40.15,0,0,1,194.89,264.27Z" style="opacity:0.30000000000000004"></path><path d="M188,266.94a24.61,24.61,0,0,1-.66,3.25c-1.71,6.21-2.37,11.13-7.75,25.55-4.3,12.28-13.92,35.26-12.19,44.4l-74.31-4.58s2.38-20.5,8.06-46.35A400.75,400.75,0,0,1,112,249.26q1.63-4.94,3.45-9.76c3.51-9.36,5.15-17,14.71-15.12,1.54.31,3.12.65,4.74,1h0l.25.06,3,.72c2.9.74,5.67,1.46,8.33,2.17a167.88,167.88,0,0,1,19.25,6.23l.84.34c1.1.45,2.21.92,3.32,1.4,1.91.83,3.83,1.7,5.7,2.56a17.9,17.9,0,0,1,1.67.9,19,19,0,0,1,4,3.28c.39.41.75.83,1.1,1.27.23.29.46.59.68.9.35.48.68,1,1,1.5a24.93,24.93,0,0,1,1.34,2.5,3.41,3.41,0,0,1,.22.48,29.4,29.4,0,0,1,1.7,4.8A31.72,31.72,0,0,1,188,266.94Z" style="fill:#263238"></path><path d="M134.89,225.41c-1.48-.32-.3,18.49,20.69,27s22.67-14.48,21.89-19.82C177.47,232.58,157.06,230.17,134.89,225.41Z" style="fill:#ebb376"></path><path d="M165.48,200.87c-3.56,9.24-11.36,25.25-20.14,26.73,0,0,8.11,4.26,16.59,25.22,9.21-3.15,7.38-7.65,7.38-7.65-7.25-8.47-2.83-15,2.62-20.26Z" style="fill:#ebb376"></path><path d="M168.11,210.67l3.82,14.23a29.19,29.19,0,0,0-3.55,3.94c-3-2.91-5.11-10-3.19-13.9A14.15,14.15,0,0,1,168.11,210.67Z" style="opacity:0.2"></path><path d="M199.87,228.17c-11.55,5.19-10.05,25.66-10.05,25.66s-7.72-4.66-6.33-12.83c0,0-2.79,4.09-.17,10,0,0-5.85-13.12.89-23C188.56,221.57,199.87,228.17,199.87,228.17Z" style="fill:#FF385C"></path><path d="M199.87,228.17c-11.55,5.19-10.05,25.66-10.05,25.66s-7.72-4.66-6.33-12.83c0,0-2.79,4.09-.17,10,0,0-5.85-13.12.89-23C188.56,221.57,199.87,228.17,199.87,228.17Z" style="opacity:0.30000000000000004"></path><path d="M170.24,180.56c-6.78,14.17-10,20-7.22,31.19,4.11,16.83,22.28,22.84,33,11.17,9.64-10.51,19.12-31.91,9.3-45.43C195.64,164.17,177,166.39,170.24,180.56Z" style="fill:#ebb376"></path><path d="M184.63,194.29c-.62,1.17-.55,2.47.16,2.92s1.79-.14,2.42-1.3.54-2.47-.17-2.92S185.25,193.13,184.63,194.29Z" style="fill:#263238"></path><path d="M198.74,202.53c-.62,1.17-.54,2.47.17,2.91s1.79-.13,2.41-1.3.55-2.47-.16-2.91S199.37,201.37,198.74,202.53Z" style="fill:#263238"></path><path d="M200.81,201.1l3,.82S201.35,203.27,200.81,201.1Z" style="fill:#263238"></path><path d="M193.15,202.45s-.83,6.16-.08,9.85c-2.21.54-4.3-1.64-4.3-1.64Z" style="fill:#d58745"></path><path d="M186.48,185.72a.71.71,0,0,0,.57.13,5.62,5.62,0,0,1,5.16,1.41.71.71,0,0,0,1,0,.84.84,0,0,0,0-1.12,7.06,7.06,0,0,0-6.51-1.86.79.79,0,0,0-.57.93A.83.83,0,0,0,186.48,185.72Z" style="fill:#263238"></path><path d="M208.51,198.42a.75.75,0,0,0,.51.21.76.76,0,0,0,.72-.81,8.06,8.06,0,0,0-3.11-6.44.7.7,0,0,0-1,.25.82.82,0,0,0,.24,1.09,6.46,6.46,0,0,1,2.41,5.13A.85.85,0,0,0,208.51,198.42Z" style="fill:#263238"></path><path d="M186.69,192.86l3.05.83S187.23,195,186.69,192.86Z" style="fill:#263238"></path><path d="M168.43,190.34s15.21-2.27,20.18-16.55c0,0,23,3.28,19.63,26.46,0,0,10.81-15.31-5.06-28.56s-50.44-1.17-40.75,28.4Z" style="fill:#FF385C"></path><path d="M187.86,214.08a49.4,49.4,0,0,0-5.24,4.64c-.34-.23-.68-.46-1-.71-4.54-3.25-5.58-6.27-5.34-8.62a7.17,7.17,0,0,1,1.2-3.2,7,7,0,0,1,1.26-1.49c1.38,3.17,5.39,6.53,7.6,8.24C187.25,213.67,187.86,214.08,187.86,214.08Z" style="fill:#263238"></path><path d="M186.33,212.94l-1.58,1.33c-4.28-3.08-6.87-5.82-7.28-8.08a7,7,0,0,1,1.26-1.49C180.11,207.87,184.12,211.23,186.33,212.94Z" style="fill:#fff"></path><path d="M181.61,218c-4.54-3.25-5.58-6.27-5.34-8.62A18.15,18.15,0,0,1,180.6,214,6.66,6.66,0,0,1,181.61,218Z" style="fill:#de5753"></path><path d="M168.43,190.34s15.21-2.27,20.18-16.55c0,0,23,3.28,19.63,26.46,0,0,10.81-15.31-5.06-28.56s-50.44-1.17-40.75,28.4Z" style="opacity:0.30000000000000004"></path><path d="M159.64,189.09a12.61,12.61,0,0,0,3.5,9c3,3,6.63.4,7.54-3.88.83-3.86.24-10.08-3.64-11.45S159.71,184.85,159.64,189.09Z" style="fill:#ebb376"></path><path d="M101.17,289.21A400.75,400.75,0,0,1,112,249.26c10.62-5.43,18.8-9.13,18.8-9.13S133,279.18,101.17,289.21Z" style="opacity:0.30000000000000004"></path><ellipse cx="155.64" cy="287.67" rx="17.04" ry="13.43" transform="translate(-158.75 377.86) rotate(-77.59)" style="fill:#fff;opacity:0.2"></ellipse><polygon points="137.68 287.67 173.99 280.72 173.99 288.93 137.68 295.5 137.68 287.67" style="fill:#263238"></polygon><polygon points="137.68 287.67 173.99 280.72 173.99 288.93 137.68 295.5 137.68 287.67" style="fill:#fff;opacity:0.30000000000000004"></polygon><rect x="290.31" y="221.22" width="14.39" height="41.09" transform="translate(-14.07 18.43) rotate(-3.47)" style="fill:#FF385C"></rect><rect x="290.31" y="221.22" width="14.39" height="41.09" transform="translate(-14.07 18.43) rotate(-3.47)" style="fill:#fff;opacity:0.7000000000000001"></rect><rect x="287.46" y="219.76" width="17.73" height="5.25" transform="translate(-12.9 18.32) rotate(-3.47)" style="fill:#FF385C"></rect><rect x="287.46" y="219.76" width="17.73" height="5.25" transform="translate(-12.9 18.32) rotate(-3.47)" style="fill:#fff;opacity:0.2"></rect><rect x="183.05" y="277.1" width="57.11" height="93.11" transform="translate(-19.18 13.39) rotate(-3.47)" style="fill:#FF385C"></rect><rect x="183.05" y="277.1" width="57.11" height="93.11" transform="translate(-19.18 13.39) rotate(-3.47)" style="fill:#fff;opacity:0.7000000000000001"></rect><rect x="196.62" y="305.47" width="22.28" height="34.99" transform="translate(-19.15 13.15) rotate(-3.47)" style="fill:#fff;opacity:0.7000000000000001"></rect><rect x="197.75" y="307.75" width="8.98" height="14.87" transform="translate(-18.69 12.8) rotate(-3.47)" style="opacity:0.4"></rect><rect x="207.81" y="307.14" width="8.98" height="14.87" transform="translate(-18.63 13.41) rotate(-3.47)" style="opacity:0.4"></rect><rect x="198.73" y="323.92" width="8.98" height="14.87" transform="translate(-19.66 12.89) rotate(-3.47)" style="opacity:0.4"></rect><rect x="208.79" y="323.31" width="8.98" height="14.87" transform="translate(-19.61 13.5) rotate(-3.47)" style="opacity:0.4"></rect><polygon points="216.34 307.17 217.22 321.73 213.88 321.93 216.34 307.17" style="fill:#fff;opacity:0.2"></polygon><polygon points="217.31 323.05 218.12 336.49 217.88 337.91 211.14 338.32 213.66 323.27 217.31 323.05" style="fill:#fff;opacity:0.2"></polygon><polygon points="206.95 322.35 207.11 321.4 207.17 322.34 206.95 322.35" style="fill:#fff;opacity:0.2"></polygon><polygon points="206.73 323.69 207.25 323.66 208.07 337.21 207.85 338.52 204.21 338.74 206.73 323.69" style="fill:#fff;opacity:0.2"></polygon><polygon points="208.34 323.59 210.36 323.47 208.88 332.36 208.34 323.59" style="fill:#fff;opacity:0.2"></polygon><polygon points="213.1 307.08 210.58 322.13 208.27 322.27 207.92 316.56 209.47 307.3 213.1 307.08" style="fill:#fff;opacity:0.2"></polygon><polygon points="200.49 324.07 201.46 324.01 199.12 337.97 198.87 333.79 200.49 324.07" style="fill:#fff;opacity:0.2"></polygon><polygon points="204.19 307.62 201.67 322.67 200.71 322.73 203.23 307.68 204.19 307.62" style="fill:#fff;opacity:0.2"></polygon><rect x="185.2" y="348.11" width="92.75" height="20.95" transform="translate(484.4 702.52) rotate(176.53)" style="fill:#FF385C"></rect><rect x="185.2" y="348.11" width="92.75" height="20.95" transform="translate(484.4 702.52) rotate(176.53)" style="fill:#fff;opacity:0.5"></rect><rect x="210.83" y="351.1" width="5.29" height="2.03" transform="translate(-20.9 13.55) rotate(-3.47)" style="fill:#fff;opacity:0.2"></rect><rect x="216.63" y="350.75" width="5.29" height="2.03" transform="translate(-20.86 13.9) rotate(-3.47)" style="fill:#fff;opacity:0.2"></rect><rect x="213.89" y="353.54" width="5.29" height="2.03" transform="translate(-21.04 13.74) rotate(-3.47)" style="fill:#fff;opacity:0.2"></rect><rect x="224.94" y="360.79" width="5.29" height="2.03" transform="translate(-21.46 14.42) rotate(-3.47)" style="fill:#fff;opacity:0.2"></rect><rect x="222.2" y="363.58" width="5.29" height="2.03" transform="translate(-21.63 14.26) rotate(-3.47)" style="fill:#fff;opacity:0.2"></rect><rect x="202.68" y="359.17" width="5.29" height="2.03" transform="translate(-21.4 13.07) rotate(-3.47)" style="fill:#fff;opacity:0.2"></rect><rect x="263.41" y="347.92" width="5.29" height="2.03" transform="translate(-20.61 16.72) rotate(-3.47)" style="fill:#fff;opacity:0.2"></rect><rect x="185.62" y="365.8" width="5.29" height="2.03" transform="translate(-21.84 12.06) rotate(-3.47)" style="fill:#fff;opacity:0.2"></rect><rect x="191.42" y="365.44" width="5.29" height="2.03" transform="translate(-21.8 12.4) rotate(-3.47)" style="fill:#fff;opacity:0.2"></rect><rect x="188.67" y="368.23" width="5.29" height="2.03" transform="translate(-21.97 12.24) rotate(-3.47)" style="fill:#fff;opacity:0.2"></rect><rect x="238.81" y="352.18" width="5.29" height="2.03" transform="translate(-20.91 15.24) rotate(-3.47)" style="fill:#fff;opacity:0.2"></rect><rect x="244.61" y="351.82" width="5.29" height="2.03" transform="translate(-20.88 15.59) rotate(-3.47)" style="fill:#fff;opacity:0.2"></rect><rect x="241.87" y="354.61" width="5.29" height="2.03" transform="translate(-21.05 15.43) rotate(-3.47)" style="fill:#fff;opacity:0.2"></rect><rect x="270.14" y="363" width="5.29" height="2.03" transform="translate(-21.52 17.17) rotate(-3.47)" style="fill:#fff;opacity:0.2"></rect><rect x="264.34" y="363.35" width="5.29" height="2.03" transform="translate(-21.54 16.81) rotate(-3.47)" style="fill:#fff;opacity:0.2"></rect><rect x="267.09" y="360.57" width="5.29" height="2.03" transform="translate(-21.37 16.97) rotate(-3.47)" style="fill:#fff;opacity:0.2"></rect><rect x="187.88" y="355.11" width="5.29" height="2.03" transform="translate(-21.18 12.17) rotate(-3.47)" style="fill:#fff;opacity:0.2"></rect><rect x="184.98" y="355.38" width="2.38" height="2.03" transform="translate(-21.22 11.91) rotate(-3.47)" style="fill:#fff;opacity:0.2"></rect><rect x="184.82" y="352.68" width="5.29" height="2.03" transform="translate(-21.04 11.98) rotate(-3.47)" style="fill:#fff;opacity:0.2"></rect><polygon points="181.63 301.13 222.78 298.64 218.39 369.88 234.51 368.91 327.31 363.29 321.68 270.35 180.29 278.91 181.63 301.13" style="opacity:0.1"></polygon><polygon points="331.99 286.65 326.79 286.96 293.52 256.31 255.33 259.33 221.87 293.32 173.99 296.22 185.42 244.55 314.41 236.73 331.99 286.65" style="fill:#FF385C"></polygon><polygon points="331.99 286.65 326.79 286.96 293.52 256.31 255.33 259.33 221.87 293.32 173.99 296.22 185.42 244.55 314.41 236.73 331.99 286.65" style="fill:#fff;opacity:0.2"></polygon><g style="opacity:0.2"><path d="M328.65,277.17l-.34-1-10.35.63L316.3,271l9.95-.61-.34-1L316,270l-1.65-5.87,9.48-.58-.34-1-9.42.57-1.66-5.87,9-.55-.34-1-8.95.54-1.66-5.87,8.55-.52-.33-1-8.49.51-1.66-5.87,8.08-.49-.33-1-8,.48-1.53-5.43-1,.06,1.53,5.43-8.53.52-1.33-5.45-1,.06,1.34,5.45-8.54.52-1.13-5.46-1,.06,1.13,5.46-8.54.52-.93-5.48-1,.06.94,5.48-8.55.51-.73-5.48-1,.06.73,5.48-8.54.52-.54-5.5-1,.06.54,5.5-8.55.52-.33-5.51-1,.06.33,5.51-8.55.51-.13-5.52-1,.06.13,5.52-8.54.52.06-5.53-1,.06-.06,5.53-8.52.52.26-5.55-1,.06-.27,5.55-8.56.51.46-5.55-1,.06-.47,5.55-8.54.52.67-5.57-1,.06-.67,5.57-8.53.52.87-5.58-1,.06-.87,5.58-8.8.53-.22,1,8.87-.54-.94,6-9.27.56-.22,1,9.33-.57-.93,6-9.74.59-.22,1,9.8-.59-.93,6-10.21.61-.22,1,10.27-.62-.93,6-10.68.65-.22,1,10.74-.65-.94,6-11.14.68-.22,1,11.21-.68-1.52,9.78,1-.06,1.52-9.78,9.82-.59L197,294.82l1-.06,1.17-9.75,9.83-.6-.82,9.74,1-.06.82-9.74,9.86-.6-.47,9.72,1-.06.47-9.72,9.82-.59,0,1.3,1-1V283l.36,0,1-1-1.38.08.07-6,7.57-.46,1-1-8.59.52.07-6,9.34-.57.12,5.06,1-1-.1-4.15,4.45-.27,1-1-5.5.33-.15-6,9.09-.55.15,2.53.93-.94-.1-1.65,1.84-.11,1-1.05L252,260l-.36-5.95,8.83-.54.53,5.42,1-.08-.53-5.4,8.84-.53.7,5.22,1-.08-.69-5.2,8.83-.54.86,5,1-.08-.86-5,8.83-.53,1,4.83,1-.08-1-4.81,8.82-.54,1.45,5.89-6.47.39,1,.92,5.7-.34,1.44,5.89-1.05.06,1,.92.29,0,.09.38,1.31,1.2-.41-1.64,9.32-.56,1.66,5.87-6.18.38,1,.92,5.46-.33,1.65,5.87-1,.06,1,.93.31,0,.11.4,1.38,1.27-.49-1.73ZM222.53,248.81l8.56-.52-.08,6-8.77.53Zm-9.59.58,8.6-.52-.28,6-8.82.54ZM201,270l.72-6,9.07-.54-.5,6Zm9.2.43-.5,6-9.54.58.72-6ZM201.83,263l.72-6,8.82-.54-.51,6Zm9.94.38,9.1-.56-.28,6-9.32.56Zm.08-1,.51-6,8.85-.53-.29,6ZM203.39,250l8.57-.52-.51,6-8.79.53Zm-9.56.58,8.56-.52-.72,6-8.78.53Zm-1.09,7,8.81-.53-.72,6-9,.54Zm-1.1,7,9.07-.54-.72,6-9.28.57Zm-1.09,7,9.32-.57-.72,6-9.53.58Zm7.76,12.46-9.79.59.94-6,9.57-.58Zm10.79-.66-9.79.6.72-6,9.58-.58Zm10.81-.65-9.82.6.5-6,9.61-.58Zm.34-7-9.57.58.5-6,9.36-.57Zm10.43,6.33-9.78.59.29-6,9.56-.58Zm.08-7-9.53.57.29-6,9.31-.56Zm.09-7-9.28.57.29-6,9.06-.54Zm.08-7-9,.55.29-6,8.81-.54Zm10.2,6.34-9.3.57.07-6,9.08-.55Zm-.17-6.94-9.05.54.07-6,8.84-.53Zm-.17-6.95-8.8.53.08-6,8.58-.52ZM251,260l-9.05.55-.15-6,8.84-.54Zm-.42-6.93-8.8.53-.14-6,8.58-.52Zm1-.06-.36-6,8.58-.52.58,5.94Zm9.78-.59-.58-5.94,8.58-.52.8,5.92Zm9.78-.6-.8-5.92,8.58-.52,1,5.91Zm9.78-.59-1-5.91,8.57-.52,1.23,5.9Zm9.78-.59-1.23-5.9,8.57-.52,1.45,5.89Zm8.34-6.48,8.56-.52,1.66,5.87-8.78.54Zm1.68,6.85,8.81-.53,1.66,5.87-9,.55Zm3.12,12.75-1.44-5.89,9.06-.55,1.66,5.87Z"></path></g><polygon points="322.21 279 327.31 363.29 234.51 368.91 229.41 284.62 273.49 243.58 322.21 279" style="fill:#FF385C"></polygon><polygon points="322.21 279 327.31 363.29 234.51 368.91 229.41 284.62 273.49 243.58 322.21 279" style="fill:#fff;opacity:0.7000000000000001"></polygon><polygon points="173.09 297.48 172.79 292.59 224.77 289.44 273.13 237.59 327.39 283.22 332.75 282.9 333.04 287.79 325.74 288.23 273.54 244.34 227.01 294.21 173.09 297.48" style="fill:#FF385C"></polygon><rect x="271.77" y="270" width="7.31" height="11.07" transform="translate(-16.15 17.16) rotate(-3.47)" style="fill:#fff;opacity:0.7000000000000001"></rect><rect x="273.17" y="271.88" width="4.5" height="7.3" transform="translate(-16.15 17.16) rotate(-3.47)" style="opacity:0.4"></rect><rect x="246.49" y="302.45" width="22.28" height="34.99" transform="translate(-18.87 16.16) rotate(-3.47)" style="fill:#fff;opacity:0.7000000000000001"></rect><rect x="247.62" y="304.73" width="8.98" height="14.87" transform="translate(-18.41 15.81) rotate(-3.47)" style="opacity:0.4"></rect><rect x="257.68" y="304.12" width="8.98" height="14.87" transform="translate(-18.36 16.42) rotate(-3.47)" style="opacity:0.4"></rect><rect x="248.6" y="320.89" width="8.98" height="14.87" transform="translate(-19.39 15.9) rotate(-3.47)" style="opacity:0.4"></rect><rect x="258.66" y="320.29" width="8.98" height="14.87" transform="translate(-19.33 16.51) rotate(-3.47)" style="opacity:0.4"></rect><polygon points="248.16 321.18 249.56 321.1 248.53 327.29 248.16 321.18" style="fill:#fff;opacity:0.2"></polygon><polygon points="252.3 304.7 249.78 319.76 248.08 319.86 247.18 305.01 252.3 304.7" style="fill:#fff;opacity:0.2"></polygon><polygon points="252.86 320.89 256.49 320.68 253.97 335.73 250.34 335.95 252.86 320.89" style="fill:#fff;opacity:0.2"></polygon><polygon points="256.14 304.47 256.95 317.89 256.71 319.34 253.08 319.56 255.59 304.5 256.14 304.47" style="fill:#fff;opacity:0.2"></polygon><polygon points="259.22 304.29 257.76 313.04 257.24 304.41 259.22 304.29" style="fill:#fff;opacity:0.2"></polygon><polygon points="261.77 320.36 262.73 320.3 260.21 335.35 259.25 335.41 261.77 320.36" style="fill:#fff;opacity:0.2"></polygon><polygon points="265.47 303.91 262.95 318.96 261.99 319.02 264.5 303.97 265.47 303.91" style="fill:#fff;opacity:0.2"></polygon><rect x="287.48" y="309" width="23.29" height="55.94" transform="translate(-19.83 18.7) rotate(-3.47)" style="fill:#fff;opacity:0.7000000000000001"></rect><rect x="289.74" y="310.96" width="18.9" height="53.98" transform="translate(-19.88 18.71) rotate(-3.47)" style="opacity:0.05"></rect><rect x="294.44" y="314.39" width="7.31" height="11.07" transform="translate(-18.8 18.61) rotate(-3.47)" style="fill:#fff;opacity:0.7000000000000001"></rect><rect x="295.85" y="316.27" width="4.5" height="7.3" transform="translate(-18.8 18.61) rotate(-3.47)" style="opacity:0.4"></rect><rect x="234" y="347.33" width="54.67" height="20.95" transform="translate(-21.16 16.46) rotate(-3.47)" style="fill:#FF385C"></rect><rect x="311.86" y="343.82" width="14.78" height="20.95" transform="translate(-20.84 19.95) rotate(-3.47)" style="fill:#FF385C"></rect><rect x="234" y="347.33" width="54.67" height="20.95" transform="translate(-21.16 16.46) rotate(-3.47)" style="fill:#fff;opacity:0.5"></rect><rect x="311.86" y="343.82" width="14.78" height="20.95" transform="translate(-20.84 19.95) rotate(-3.47)" style="fill:#fff;opacity:0.5"></rect><rect x="259.6" y="349.16" width="5.29" height="2.03" transform="translate(-20.7 16.5) rotate(-3.47)" style="fill:#fff;opacity:0.2"></rect><rect x="265.4" y="348.81" width="5.29" height="2.03" transform="translate(-20.67 16.85) rotate(-3.47)" style="fill:#fff;opacity:0.2"></rect><rect x="262.66" y="351.6" width="5.29" height="2.03" transform="translate(-20.83 16.68) rotate(-3.47)" style="fill:#fff;opacity:0.2"></rect><rect x="273.71" y="358.85" width="5.29" height="2.03" transform="translate(-21.25 17.37) rotate(-3.47)" style="fill:#fff;opacity:0.2"></rect><rect x="270.97" y="361.64" width="5.29" height="2.03" transform="translate(-21.42 17.21) rotate(-3.47)" style="fill:#fff;opacity:0.2"></rect><rect x="251.46" y="357.23" width="5.29" height="2.03" transform="translate(-21.19 16.02) rotate(-3.47)" style="fill:#fff;opacity:0.2"></rect><rect x="312.18" y="345.98" width="5.29" height="2.03" transform="translate(-20.4 19.67) rotate(-3.47)" style="fill:#fff;opacity:0.2"></rect><rect x="234.39" y="363.86" width="5.29" height="2.03" transform="translate(-21.62 15) rotate(-3.47)" style="fill:#fff;opacity:0.2"></rect><rect x="240.19" y="363.5" width="5.29" height="2.03" transform="translate(-21.6 15.35) rotate(-3.47)" style="fill:#fff;opacity:0.2"></rect><rect x="237.44" y="366.29" width="5.29" height="2.03" transform="translate(-21.77 15.19) rotate(-3.47)" style="fill:#fff;opacity:0.2"></rect><rect x="287.59" y="350.38" width="0.74" height="2.02" transform="translate(-20.72 18.05) rotate(-3.47)" style="fill:#fff;opacity:0.2"></rect><rect x="318.91" y="361.06" width="5.29" height="2.03" transform="translate(-21.29 20.1) rotate(-3.46)" style="fill:#fff;opacity:0.2"></rect><rect x="313.12" y="361.41" width="5.29" height="2.03" transform="translate(-21.34 19.76) rotate(-3.47)" style="fill:#fff;opacity:0.2"></rect><rect x="315.86" y="358.63" width="5.29" height="2.03" transform="translate(-21.16 19.91) rotate(-3.47)" style="fill:#fff;opacity:0.2"></rect><rect x="236.65" y="353.17" width="5.29" height="2.03" transform="translate(-20.97 15.11) rotate(-3.47)" style="fill:#fff;opacity:0.2"></rect><rect x="233.75" y="353.44" width="2.38" height="2.03" transform="translate(-20.99 14.85) rotate(-3.46)" style="fill:#fff;opacity:0.2"></rect><rect x="233.59" y="350.74" width="5.29" height="2.03" transform="translate(-20.84 14.93) rotate(-3.47)" style="fill:#fff;opacity:0.2"></rect><path d="M302.91,195.21a8.15,8.15,0,0,0-3.9,1,6.13,6.13,0,1,0-8.63,8.68,6.44,6.44,0,0,0-.64,2.81,6.58,6.58,0,0,0,11.87,3.92,8.05,8.05,0,0,0,1.3.11,8.25,8.25,0,0,0,0-16.5Z" style="fill:#FF385C"></path><path d="M281.92,192.74a4.67,4.67,0,0,0,1.89-1.36,3.54,3.54,0,1,0,2.79-6.5,3.8,3.8,0,0,0-7.47-1.23,5,5,0,0,0-.72.22,4.77,4.77,0,1,0,3.51,8.87Z" style="fill:#FF385C"></path><path d="M300.83,174.26a3.36,3.36,0,0,0-1.64.2,2.51,2.51,0,0,0-4.56,1.11,2.47,2.47,0,0,0,.6,2,2.66,2.66,0,0,0-.41,1.11,2.7,2.7,0,0,0,4.63,2.22,3,3,0,0,0,.52.11,3.39,3.39,0,0,0,.86-6.72Z" style="fill:#FF385C"></path><path d="M302.91,195.21a8.15,8.15,0,0,0-3.9,1,6.13,6.13,0,1,0-8.63,8.68,6.44,6.44,0,0,0-.64,2.81,6.58,6.58,0,0,0,11.87,3.92,8.05,8.05,0,0,0,1.3.11,8.25,8.25,0,0,0,0-16.5Z" style="fill:#fff;opacity:0.7000000000000001"></path><path d="M281.92,192.74a4.67,4.67,0,0,0,1.89-1.36,3.54,3.54,0,1,0,2.79-6.5,3.8,3.8,0,0,0-7.47-1.23,5,5,0,0,0-.72.22,4.77,4.77,0,1,0,3.51,8.87Z" style="fill:#fff;opacity:0.7000000000000001"></path><path d="M300.83,174.26a3.36,3.36,0,0,0-1.64.2,2.51,2.51,0,0,0-4.56,1.11,2.47,2.47,0,0,0,.6,2,2.66,2.66,0,0,0-.41,1.11,2.7,2.7,0,0,0,4.63,2.22,3,3,0,0,0,.52.11,3.39,3.39,0,0,0,.86-6.72Z" style="fill:#fff;opacity:0.7000000000000001"></path><path d="M127.56,251.84c3.59,9.52,7.39,19.61,11.63,28.75A87.8,87.8,0,0,0,146,293.11a24.31,24.31,0,0,0,1.83,2.3l-.34-.27a4.3,4.3,0,0,0-1.07-.58c-.24-.06-.06,0,.2.09,6.9,1,14-.27,21.25-1,5.2-.68,10.44-1.5,15.7-2.34,10.52-1.72,21.13-3.66,31.68-5.54,5.88-.93,8.14,7.3,2.58,9.48-20.95,7.42-41.83,14.13-64.06,16.89-5.87.49-12.76,1-17.82-3.29-6.29-5.5-10.26-12.53-14.13-19.57a208.22,208.22,0,0,1-10.27-23.05c-1-2.63-1.89-5.17-2.79-8-3.51-12.49,14-18.43,18.78-6.39Z" style="fill:#e9b376"></path><path d="M124.64,224.26C111.3,226.41,104,243.2,104,274.35c22.2,7,33.67-3.72,33.67-3.72S136,236.58,124.64,224.26Z" style="fill:#263238"></path><path d="M207,288.11l9.16-11.41,7,14.62s-8.79,9.69-13.59,4.95Z" style="fill:#ebb376"></path><polygon points="229.78 271.76 231.56 286.39 223.19 291.32 216.15 276.7 229.78 271.76" style="fill:#ebb376"></polygon><path d="M239.12,231.19a6.32,6.32,0,0,1-.46.49c.13-.2.24-.32.31-.43C239.31,230.87,239.25,231,239.12,231.19Z" style="fill:#e9b376"></path><polygon points="186.42 416.11 208.01 422.79 218.37 426 222.98 415.47 213.79 411.23 191.34 400.87 186.42 416.11" style="fill:#ebb376"></polygon><path d="M221.06,413.38,214.59,425a1.32,1.32,0,0,0,.55,1.81l5.86,3s7.59,4.64,10.36,3.88c8.1-2.23,23.08-27.62,20.95-30.5-.78-1.05-2.87-.47-4,.16-3.65,2-12,8.06-15.08,9.67-3.58,1.89-8.46.48-10.56-.29A1.29,1.29,0,0,0,221.06,413.38Z" style="fill:#FF385C"></path><polygon points="186.42 416.11 208.01 422.79 213.79 411.23 191.34 400.87 186.42 416.11" style="isolation:isolate;opacity:0.2"></polygon><path d="M210.3,408.42s-83.07-63-114.34-65.89-39.53,23.93-29.07,42.85,43.25,30.86,43.25,30.86-22.68-29.51-19.46-35.6,11.1,4.11,11.1,4.11,54.12,26.11,103.1,37.14Z" style="fill:#263238"></path><path d="M210.3,408.42s-83.07-63-114.34-65.89-39.53,23.93-29.07,42.85,43.25,30.86,43.25,30.86-22.68-29.51-19.46-35.6,11.1,4.11,11.1,4.11,54.12,26.11,103.1,37.14Z" style="fill:#fff;opacity:0.45"></path><polygon points="211.94 407.22 207.32 403.1 198 422.31 205.86 423.39 211.94 407.22" style="fill:#FF385C"></polygon><polygon points="211.94 407.22 207.32 403.1 198 422.31 205.86 423.39 211.94 407.22" style="fill:#fff;isolation:isolate;opacity:0.6000000000000001"></polygon><path d="M229.22,415.43a.32.32,0,0,1-.37-.07.27.27,0,0,1,0-.33c.25-.54,2.63-5.24,4.42-5.52a1.08,1.08,0,0,1,1,.44,1.78,1.78,0,0,1,.38,1.74,4.65,4.65,0,0,1-1.93,2.09A18,18,0,0,1,229.22,415.43Zm.57-.88a7.38,7.38,0,0,0,4.14-3,1.13,1.13,0,0,0-.28-1.19.36.36,0,0,0-.38-.17,1.09,1.09,0,0,0-.43.18A14.42,14.42,0,0,0,229.79,414.55Z" style="fill:#263238"></path><path d="M229.12,415.48a.26.26,0,0,1-.3-.13c-.14-.16-2.1-3.48-1.43-5.44a1.89,1.89,0,0,1,1-1.12,1.1,1.1,0,0,1,1.38.06c1.12,1,.42,5-.4,6.45l-.06.15A.38.38,0,0,1,229.12,415.48Zm-.53-6a1.28,1.28,0,0,0-.51.66c-.43,1.25.5,3.32,1,4.33.63-1.66.89-4.48.23-5.08-.07-.05-.2-.19-.6,0l-.13.07Z" style="fill:#263238"></path><path d="M272.33,234c0,.31-.05.47-.09.69s-.08.41-.13.61a7.53,7.53,0,0,1-.32,1.07,9.53,9.53,0,0,1-.67,1.44c-.1.18-.2.35-.32.53s-.17.26-.27.4l-.5.65a12.82,12.82,0,0,1-1.43,1.44c-.38.32-.72.58-1,.8-.6.44-1.12.76-1.61,1.07a56.26,56.26,0,0,1-5.2,2.76c-1.65.77-3.26,1.49-4.86,2.18-6.4,2.76-12.75,5.14-19.13,7.46q-12,4.33-24.15,8.14-6,1.88-12.08,3.63l-2.37.69a4.94,4.94,0,0,1-5-1.38l.25-1.36,9.19-10.31,1.08-.52,0,0c3-1.43,6-2.92,9-4.33l18.1-8.61c3-1.43,6-2.87,9-4.34s5.92-2.9,8.77-4.4c1.43-.75,2.84-1.51,4.17-2.27.69-.39,1.37-.79,2-1.17.27-3.92,1.22-7.34,3.13-7.18a30.64,30.64,0,0,1,3.61.55,18.51,18.51,0,0,1,4.79,1.72,13,13,0,0,1,3.27,2.49c.28.29.58.66.85,1,0,0,.15.2.34.48s.33.53.48.8a9.54,9.54,0,0,1,.72,1.76,8.73,8.73,0,0,1,.34,1.86A9.32,9.32,0,0,1,272.33,234Z" style="fill:#e9b376"></path><path d="M212,264a28.63,28.63,0,0,1-3.57,6.1l-8.51-2.47-7.08-2.05L202,255.25l.55-.62.57.08,7.92,1.14C213.62,257.73,213.16,261,212,264Z" style="fill:#ebb376"></path><polygon points="208.39 270.08 204.92 279.15 190.19 279.81 192.55 266.92 192.8 265.56 199.88 267.61 208.39 270.08" style="fill:#ebb376"></polygon></g></svg>
